# Blender 5.1.2
# www.blender.org
mtllib eventhorizonbody.mtl
o eventhorizonbody
v -2.499614 -0.224081 0.064646
v -2.447355 -0.155779 0.010820
v -2.500602 -0.202590 -0.015553
v -2.447834 -0.116850 -0.028106
v -2.446700 -0.170028 0.063994
v -2.501326 -0.143877 -0.074263
v -2.498626 -0.202590 0.144844
v -2.448011 -0.063672 -0.042354
v -2.446045 -0.155779 0.117168
v -2.501590 -0.063672 -0.095752
v -2.497903 -0.143877 0.203553
v -2.501326 0.016533 -0.074263
v -2.445565 -0.116850 0.156094
v -2.447834 -0.010494 -0.028106
v -2.497638 -0.063672 0.225043
v -2.500602 0.075247 -0.015553
v -2.445390 -0.063672 0.170342
v -2.447355 0.028435 0.010820
v -2.445565 -0.010494 0.156094
v -2.499614 0.096737 0.064646
v -2.497903 0.016533 0.203553
v -2.446700 0.042684 0.063994
v -2.446045 0.028435 0.117168
v -2.498626 0.075247 0.144844
v -2.446700 -0.275927 0.063994
v -2.500602 -0.202590 -0.015553
v -2.448008 -0.247489 -0.042125
v -2.499614 -0.224081 0.064646
v -2.501326 -0.143877 -0.074263
v -2.498626 -0.202590 0.144844
v -2.448965 -0.169799 -0.119810
v -2.445393 -0.247489 0.170113
v -2.449316 -0.063672 -0.148244
v -2.497903 -0.143877 0.203553
v -2.501590 -0.063672 -0.095752
v -2.444435 -0.169799 0.247797
v -2.501326 0.016533 -0.074263
v -2.444085 -0.063672 0.276231
v -2.448965 0.042455 -0.119810
v -2.497638 -0.063672 0.225043
v -2.448008 0.120145 -0.042125
v -2.497903 0.016533 0.203553
v -2.500602 0.075247 -0.015553
v -2.444435 0.042455 0.247797
v -2.446700 0.148582 0.063994
v -2.445393 0.120145 0.170112
v -2.499614 0.096737 0.064646
v -2.498626 0.075247 0.144844
v 1.544081 -0.175479 0.014816
v 1.678274 -0.225119 0.013162
v 1.528698 -0.145725 -0.107525
v 1.531717 -0.145725 0.137498
v 1.656507 -0.183016 -0.159957
v 1.660779 -0.183016 0.186765
v 1.489692 -0.064437 -0.196743
v 1.494921 -0.064437 0.227650
v 1.601308 -0.067989 -0.286204
v 1.608708 -0.067989 0.314334
v 1.527470 0.089141 -0.331754
v 1.536015 0.089141 0.361691
v 1.437510 0.046605 -0.228932
v 1.443549 0.046605 0.261114
v 1.386138 0.157646 -0.195467
v 1.391368 0.157646 0.228926
v 1.454777 0.246272 -0.284398
v 1.462177 0.246272 0.316140
v 1.349342 0.238935 -0.105315
v 1.352361 0.238935 0.139708
v 1.402707 0.361299 -0.156829
v 1.406979 0.361299 0.189892
v 1.336979 0.268688 0.017368
v 1.385212 0.403401 0.016774
v 1.601143 -0.303757 -0.209096
v 1.678274 -0.225119 0.013162
v 1.629165 -0.357958 0.013767
v 1.606643 -0.303757 0.237254
v 1.656507 -0.183016 -0.159957
v 1.660779 -0.183016 0.186765
v 1.530085 -0.155677 -0.371623
v 1.539612 -0.155677 0.401481
v 1.601308 -0.067989 -0.286204
v 1.608708 -0.067989 0.314334
v 1.435029 0.046605 -0.430260
v 1.446030 0.046605 0.462444
v 1.527470 0.089141 -0.331754
v 1.536015 0.089141 0.361691
v 1.454777 0.246272 -0.284398
v 1.462177 0.246272 0.316140
v 1.341448 0.248886 -0.369298
v 1.350975 0.248886 0.403806
v 1.274415 0.396965 -0.205070
v 1.279915 0.396965 0.241280
v 1.402707 0.361299 -0.156829
v 1.406979 0.361299 0.189892
v 1.251893 0.451167 0.018416
v 1.385212 0.403401 0.016774
v -2.268661 -0.264184 0.061800
v -2.203337 -0.178806 -0.005483
v -2.269896 -0.237320 -0.038449
v -2.270801 -0.163928 -0.111835
v -2.202518 -0.196617 0.060985
v -2.203937 -0.130145 -0.054141
v -2.201699 -0.178806 0.127452
v -2.204155 -0.063672 -0.071950
v -2.267425 -0.237320 0.162047
v -2.271132 -0.063672 -0.138697
v -2.201098 -0.130145 0.176109
v -2.203937 0.002800 -0.054141
v -2.266521 -0.163928 0.235435
v -2.270801 0.036584 -0.111835
v -2.266190 -0.063672 0.262297
v -2.203337 0.051462 -0.005483
v -2.200880 -0.063672 0.193919
v -2.269896 0.109976 -0.038449
v -2.201098 0.002800 0.176109
v -2.202518 0.069273 0.060985
v -2.266521 0.036584 0.235435
v -2.268661 0.136840 0.061800
v -2.201699 0.051462 0.127452
v -2.267425 0.109976 0.162047
v -2.202518 -0.328989 0.060985
v -2.269896 -0.237320 -0.038449
v -2.204153 -0.293443 -0.071664
v -2.268661 -0.264184 0.061800
v -2.270801 -0.163928 -0.111835
v -2.267425 -0.237320 0.162047
v -2.205348 -0.196331 -0.168770
v -2.200882 -0.293443 0.193633
v -2.205787 -0.063672 -0.204312
v -2.266521 -0.163928 0.235435
v -2.271132 -0.063672 -0.138697
v -2.199687 -0.196331 0.290738
v -2.270801 0.036584 -0.111835
v -2.199249 -0.063672 0.326282
v -2.205348 0.068986 -0.168770
v -2.266190 -0.063672 0.262297
v -2.204153 0.166098 -0.071664
v -2.266521 0.036584 0.235435
v -2.269896 0.109976 -0.038449
v -2.199687 0.068986 0.290738
v -2.202518 0.201645 0.060985
v -2.200882 0.166098 0.193633
v -2.268661 0.136840 0.061800
v -2.267425 0.109976 0.162047
v -1.909026 -0.314311 0.057368
v -1.827371 -0.207589 -0.026735
v -1.910570 -0.280732 -0.067942
v -1.828121 -0.146763 -0.087557
v -1.826347 -0.229853 0.056349
v -1.911701 -0.188992 -0.159675
v -1.907482 -0.280732 0.182678
v -1.828395 -0.063672 -0.109819
v -1.825324 -0.207589 0.139433
v -1.912114 -0.063672 -0.193252
v -1.824574 -0.146763 0.200256
v -1.911701 0.061647 -0.159675
v -1.906352 -0.188992 0.274412
v -1.828121 0.019418 -0.087557
v -1.905938 -0.063672 0.307988
v -1.827371 0.080245 -0.026735
v -1.824300 -0.063672 0.222518
v -1.910570 0.153388 -0.067942
v -1.906352 0.061647 0.274412
v -1.909026 0.186966 0.057368
v -1.824574 0.019418 0.200256
v -1.826347 0.102509 0.056349
v -1.907482 0.153388 0.182678
v -1.825324 0.080245 0.139433
v -1.826347 -0.395320 0.056349
v -1.910570 -0.280732 -0.067942
v -1.828391 -0.350887 -0.109462
v -1.909026 -0.314311 0.057368
v -1.911701 -0.188992 -0.159675
v -1.907482 -0.280732 0.182678
v -1.829887 -0.229495 -0.230844
v -1.824304 -0.350887 0.222160
v -1.830434 -0.063672 -0.275273
v -1.906352 -0.188992 0.274412
v -1.912114 -0.063672 -0.193252
v -1.822808 -0.229495 0.343541
v -1.911701 0.061647 -0.159675
v -1.822261 -0.063672 0.387971
v -1.829887 0.102151 -0.230844
v -1.905938 -0.063672 0.307988
v -1.828391 0.223542 -0.109462
v -1.906352 0.061647 0.274412
v -1.910570 0.153388 -0.067942
v -1.822808 0.102151 0.343541
v -1.826347 0.267974 0.056349
v -1.824304 0.223542 0.222160
v -1.909026 0.186966 0.057368
v -1.907482 0.153388 0.182678
v 1.259138 -0.413360 0.018327
v 1.095141 -0.365425 -0.165833
v 1.181850 -0.305588 -0.145049
v 1.182708 -0.487528 0.019269
v 1.330855 -0.317655 0.017443
v 0.975612 -0.448010 -0.182987
v 1.275832 -0.240930 -0.098864
v 1.071940 -0.582331 0.020634
v 1.368356 -0.210372 0.016981
v 1.352647 -0.188468 -0.016224
v 1.380218 -0.169667 0.016835
v 0.968494 -0.632821 0.021909
v 0.882379 -0.512739 -0.160128
v 0.865069 -0.646378 0.023183
v 0.807012 -0.565420 -0.099543
v 0.764600 -0.595833 0.024421
v 1.099729 -0.365425 0.206472
v 1.259138 -0.413360 0.018327
v 1.185900 -0.305588 0.183557
v 1.330855 -0.317655 0.017443
v 1.182708 -0.487528 0.019269
v 1.278715 -0.240930 0.135072
v 0.980659 -0.448010 0.226566
v 1.368356 -0.210372 0.016981
v 1.353470 -0.188468 0.050562
v 1.380218 -0.169667 0.016835
v 1.071940 -0.582331 0.020634
v 0.968494 -0.632821 0.021909
v 0.886891 -0.512739 0.206011
v 0.865069 -0.646378 0.023183
v 0.810053 -0.565420 0.147302
v 0.764600 -0.595833 0.024421
v -1.395512 -0.408166 0.051040
v -1.317058 -0.293791 -0.082796
v -1.397635 -0.362012 -0.121194
v -1.399188 -0.235919 -0.247277
v -1.315421 -0.329391 0.050053
v -1.318257 -0.196531 -0.180049
v -1.313784 -0.293791 0.182902
v -1.399757 -0.063672 -0.293428
v -1.393390 -0.362012 0.223274
v -1.318696 -0.063672 -0.215646
v -1.391836 -0.235919 0.349357
v -1.318257 0.069187 -0.180049
v -1.312586 -0.196531 0.280155
v -1.399188 0.108575 -0.247277
v -1.391267 -0.063672 0.395508
v -1.317058 0.166446 -0.082796
v -1.312147 -0.063672 0.315751
v -1.397635 0.234667 -0.121194
v -1.312586 0.069187 0.280155
v -1.395512 0.280822 0.051040
v -1.391836 0.108575 0.349357
v -1.315421 0.202047 0.050053
v -1.313784 0.166446 0.182902
v -1.393390 0.234667 0.223274
v -1.318044 -0.432347 -0.162786
v -1.315421 -0.489381 0.050053
v -1.395512 -0.408166 0.051040
v -1.312799 -0.432347 0.262891
v -1.397635 -0.362012 -0.121194
v -1.393390 -0.362012 0.223274
v -1.399188 -0.235919 -0.247277
v -1.391836 -0.235919 0.349357
v -1.319964 -0.276526 -0.318594
v -1.310879 -0.276526 0.418699
v -1.399757 -0.063672 -0.293428
v -1.391267 -0.063672 0.395508
v -1.320667 -0.063672 -0.375624
v -1.310176 -0.063672 0.475730
v -1.319964 0.149182 -0.318594
v -1.310879 0.149182 0.418699
v -1.399188 0.108575 -0.247277
v -1.391836 0.108575 0.349357
v -1.318044 0.305002 -0.162786
v -1.312799 0.305002 0.262891
v -1.397635 0.234667 -0.121194
v -1.393390 0.234667 0.223274
v -1.315421 0.362036 0.050053
v -1.395512 0.280822 0.051040
v 0.184576 -0.223471 0.031569
v 0.153603 -0.119444 0.165445
v 0.227912 -0.172238 0.205472
v 0.111513 -0.161122 0.032469
v 0.183459 -0.017564 0.261676
v 0.150313 -0.119444 -0.101502
v 0.261156 -0.038454 0.332203
v 0.223613 -0.172238 -0.143349
v 0.242113 0.136751 0.379318
v 0.177789 -0.017565 -0.198442
v 0.158865 0.115178 0.297581
v 0.253724 -0.038454 -0.270861
v 0.115877 0.239842 0.262394
v 0.233526 0.136751 -0.317494
v 0.172644 0.298278 0.333353
v 0.152317 0.115178 -0.233729
v 0.037032 0.324582 0.166722
v 0.110210 0.239842 -0.197493
v 0.075083 0.410371 0.207596
v 0.165212 0.298278 -0.269829
v 0.008908 0.447040 0.033734
v 0.033746 0.324582 -0.099908
v -0.022831 0.352418 0.034125
v 0.070779 0.410372 -0.141708
v -0.224993 0.691907 -0.053260
v -0.254512 0.721430 -0.052896
v -0.253662 0.691907 0.016138
v -0.216622 0.691907 -0.092825
v -0.254999 0.730287 -0.092352
v -0.255530 0.721430 -0.135512
v -0.226011 0.691907 -0.135876
v -0.256381 0.691907 -0.204545
v -0.222778 0.691907 0.126463
v -0.253148 0.691907 0.057795
v -0.252298 0.721430 0.126827
v -0.213435 0.691907 0.165811
v -0.251811 0.730287 0.166284
v -0.251280 0.721430 0.209443
v -0.221760 0.691907 0.209079
v -0.250429 0.691907 0.278477
v 0.139118 -0.267436 0.248857
v 0.184576 -0.223471 0.031569
v 0.227912 -0.172238 0.205472
v 0.102580 -0.329642 0.032579
v 0.173785 -0.104174 0.406919
v 0.133777 -0.267436 -0.184535
v 0.261156 -0.038454 0.332203
v 0.223613 -0.172238 -0.143349
v 0.161270 0.115173 0.465303
v 0.164539 -0.104174 -0.343401
v 0.242113 0.136751 0.379318
v 0.253724 -0.038454 -0.270861
v 0.172644 0.298278 0.333353
v 0.150589 0.115173 -0.401459
v 0.063795 0.314726 0.408271
v 0.233526 0.136751 -0.317494
v 0.075083 0.410371 0.207596
v 0.165212 0.298278 -0.269829
v -0.050846 0.457301 0.251134
v 0.054549 0.314726 -0.342040
v 0.008908 0.447040 0.033734
v 0.070779 0.410372 -0.141708
v -0.117135 0.507444 0.035287
v -0.056185 0.457301 -0.182129
v -0.308164 -0.878167 0.037641
v -0.205979 -0.731985 0.217066
v -0.345498 -0.729638 0.197579
v -0.496977 -0.713699 0.153501
v -0.147428 -0.904166 0.035660
v -0.506530 -0.826952 0.040085
v -0.023028 -0.677262 0.232890
v -0.626888 -0.700627 0.041568
v -0.613266 -0.670247 0.073813
v -0.651760 -0.652998 0.041875
v 0.061596 -0.859587 0.033084
v 0.213634 -0.703695 0.031211
v 0.116867 -0.558106 0.210097
v 0.258518 -0.504273 0.030658
v 0.165538 -0.428913 0.151601
v 0.184472 -0.271050 0.031570
v -0.308164 -0.878167 0.037641
v -0.210432 -0.731985 -0.144248
v -0.147428 -0.904166 0.035660
v -0.349428 -0.729638 -0.121329
v -0.027926 -0.677262 -0.164576
v -0.499775 -0.713699 -0.073532
v 0.061596 -0.859587 0.033084
v -0.506530 -0.826952 0.040085
v 0.213634 -0.703695 0.031211
v -0.626888 -0.700627 0.041568
v -0.614065 -0.670247 0.008998
v -0.651760 -0.652998 0.041875
v 0.112489 -0.558106 -0.145237
v 0.258518 -0.504273 0.030658
v 0.162586 -0.428913 -0.087957
v 0.184472 -0.271050 0.031570
v 0.523207 -0.221615 0.027396
v 0.588663 -0.291208 0.026589
v 0.429918 -0.382930 -0.152886
v 0.383093 -0.302571 -0.131015
v 0.494680 -0.493839 -0.171837
v 0.432531 -0.158107 0.028513
v 0.669309 -0.392941 0.025595
v 0.332783 -0.215742 -0.084260
v 0.701994 -0.490562 0.025193
v 0.320978 -0.128833 0.029888
v 0.292502 -0.145287 -0.002308
v 0.278108 -0.120038 0.030416
v 0.545876 -0.580766 -0.151311
v 0.693300 -0.590700 0.025300
v 0.588049 -0.651514 -0.093695
v 0.613461 -0.692357 0.026284
v 0.434388 -0.382930 0.209921
v 0.523207 -0.221615 0.027396
v 0.387039 -0.302571 0.189210
v 0.432531 -0.158107 0.028513
v 0.588663 -0.291208 0.026589
v 0.335592 -0.215742 0.143710
v 0.499598 -0.493839 0.227270
v 0.320978 -0.128833 0.029888
v 0.293304 -0.145287 0.062774
v 0.278108 -0.120038 0.030416
v 0.669309 -0.392941 0.025595
v 0.701994 -0.490562 0.025193
v 0.550273 -0.580766 0.205489
v 0.693300 -0.590700 0.025300
v 0.591013 -0.651514 0.146852
v 0.613461 -0.692357 0.026284
v -0.686453 -0.558503 0.042302
v -0.729689 -0.428599 -0.124032
v -0.768042 -0.535574 -0.174740
v -0.656340 -0.442272 0.041931
v -0.833569 -0.344833 -0.243503
v -0.725577 -0.428599 0.209652
v -0.898348 -0.421301 -0.332058
v -0.762669 -0.535574 0.261288
v -1.020626 -0.239064 -0.389153
v -0.826481 -0.344833 0.331646
v -0.919687 -0.202193 -0.286943
v -0.889059 -0.421301 0.421771
v -0.948906 -0.032807 -0.241937
v -1.009892 -0.239064 0.481861
v -1.049126 -0.013042 -0.330274
v -0.911503 -0.202193 0.377195
v -1.029238 0.170567 -0.171822
v -0.941822 -0.032807 0.332923
v -0.928656 0.109642 -0.121383
v -1.039834 -0.013042 0.423703
v -0.987280 0.254020 0.046010
v -1.023858 0.170567 0.264809
v -0.886945 0.179890 0.044773
v -0.924549 0.109642 0.211905
v -0.608991 -0.569010 -0.229564
v -0.526379 -0.608421 0.040330
v -0.686453 -0.558503 0.042302
v -0.602315 -0.569010 0.312177
v -0.768042 -0.535574 -0.174740
v -0.762669 -0.535574 0.261288
v -0.761975 -0.425297 -0.425790
v -0.750417 -0.425297 0.512112
v -0.898348 -0.421301 -0.332058
v -0.889059 -0.421301 0.421771
v -0.922614 -0.202442 -0.496596
v -0.909263 -0.202442 0.586856
v -1.020626 -0.239064 -0.389153
v -1.009892 -0.239064 0.481861
v -1.049126 -0.013042 -0.330274
v -1.039834 -0.013042 0.423703
v -0.949668 0.082498 -0.423470
v -0.938111 0.082498 0.514419
v -1.029238 0.170567 -0.171822
v -1.023858 0.170567 0.264809
v -0.934056 0.309284 -0.225477
v -0.927383 0.309286 0.316102
v -0.987280 0.254020 0.046010
v -0.901525 0.406246 0.044953
v -0.253478 0.582257 0.036967
v -0.219676 0.549970 0.036550
v -0.254115 0.596101 -0.014694
v -0.252841 0.596101 0.088627
v -0.220512 0.568140 -0.031252
v -0.218841 0.568140 0.104352
v -0.221124 0.617778 -0.080888
v -0.218229 0.617778 0.153988
v -0.254581 0.633921 -0.052511
v -0.252375 0.633921 0.126445
v -0.221348 0.685585 -0.099054
v -0.218005 0.685585 0.172155
v -0.254751 0.685585 -0.066354
v -0.252205 0.685585 0.140287
v -0.254581 0.737249 -0.052511
v -0.252375 0.737249 0.126445
v -0.221124 0.753393 -0.080888
v -0.218229 0.753393 0.153988
v -0.254115 0.775071 -0.014694
v -0.252841 0.775071 0.088627
v -0.220512 0.803032 -0.031252
v -0.218841 0.803032 0.104352
v -0.219676 0.821202 0.036550
v -0.253478 0.788915 0.036967
v -0.254529 0.537790 -0.048357
v -0.219676 0.549970 0.036550
v -0.253478 0.514926 0.036967
v -0.218841 0.568140 0.104352
v -0.220512 0.568140 -0.031252
v -0.252427 0.537790 0.122290
v -0.255299 0.600256 -0.110817
v -0.218229 0.617778 0.153988
v -0.221124 0.617778 -0.080888
v -0.251657 0.600256 0.184752
v -0.221348 0.685585 -0.099054
v -0.218005 0.685585 0.172155
v -0.255581 0.685585 -0.133681
v -0.251375 0.685585 0.207614
v -0.255299 0.770915 -0.110817
v -0.251657 0.770915 0.184752
v -0.221124 0.753393 -0.080888
v -0.218229 0.753393 0.153988
v -0.254529 0.833381 -0.048357
v -0.252427 0.833381 0.122291
v -0.220512 0.803032 -0.031252
v -0.218841 0.803032 0.104352
v -0.253478 0.856245 0.036967
v -0.219676 0.821202 0.036550
v -0.285050 0.691907 -0.135148
v -0.255530 0.721430 -0.135512
v -0.256381 0.691907 -0.204545
v -0.254999 0.730287 -0.092352
v -0.293375 0.691907 -0.091879
v -0.284032 0.691907 -0.052532
v -0.254512 0.721430 -0.052896
v -0.253662 0.691907 0.016138
v -0.280799 0.691907 0.209807
v -0.250429 0.691907 0.278477
v -0.251280 0.721430 0.209443
v -0.251811 0.730287 0.166284
v -0.290187 0.691907 0.166757
v -0.281817 0.691907 0.127191
v -0.252298 0.721430 0.126827
v -0.253148 0.691907 0.057795
v -0.215029 0.821235 0.036493
v -0.253769 0.864399 0.007445
v -0.223885 0.864400 0.036602
v -0.253405 0.933438 0.036966
v -0.253878 0.821235 -0.001410
v -0.253769 0.781777 0.007445
v -0.223885 0.781777 0.036602
v -0.253405 0.712738 0.036966
v -0.223885 0.781777 0.036602
v -0.253041 0.781777 0.066486
v -0.253405 0.712738 0.036966
v -0.252932 0.821235 0.075341
v -0.215029 0.821235 0.036493
v -0.223885 0.864400 0.036602
v -0.253041 0.864399 0.066486
v -0.253405 0.933438 0.036966
v -0.215029 0.562581 0.036493
v -0.223885 0.519417 0.036602
v -0.253769 0.519417 0.007445
v -0.253405 0.450379 0.036966
v -0.253878 0.562581 -0.001410
v -0.253769 0.602040 0.007445
v -0.223885 0.602040 0.036602
v -0.253405 0.671078 0.036966
v -0.223885 0.602040 0.036602
v -0.253405 0.671078 0.036966
v -0.253041 0.602040 0.066486
v -0.252932 0.562581 0.075341
v -0.215029 0.562581 0.036493
v -0.223885 0.519417 0.036602
v -0.253041 0.519417 0.066486
v -0.253405 0.450379 0.036966
v 0.888534 0.360026 0.022894
v 0.754919 0.370823 0.024541
v 0.776472 0.181420 0.207237
v 0.907558 0.192855 0.184147
v 0.595414 0.165638 0.227773
v 1.035367 0.324220 0.021085
v 0.571704 0.373990 0.026798
v 1.048910 0.205210 0.135881
v 0.431872 0.339536 0.028521
v 1.163058 0.215235 0.052332
v 1.159194 0.249210 0.019559
v 1.203924 0.218828 0.019008
v 0.453067 0.153270 0.208193
v 0.322413 0.268780 0.029870
v 0.336702 0.143202 0.151001
v 0.268450 0.137391 0.030535
v 0.771964 0.181420 -0.158631
v 0.888534 0.360026 0.022894
v 0.903578 0.192855 -0.138780
v 0.754919 0.370823 0.024541
v 1.035367 0.324220 0.021085
v 0.590454 0.165638 -0.174701
v 1.046077 0.205210 -0.094011
v 0.571704 0.373990 0.026798
v 1.162249 0.215235 -0.013300
v 1.159194 0.249210 0.019559
v 1.203924 0.218828 0.019008
v 0.431872 0.339536 0.028521
v 0.448633 0.153270 -0.151619
v 0.322413 0.268780 0.029870
v 0.333713 0.143202 -0.091577
v 0.268450 0.137391 0.030535
v 0.922600 0.025683 0.022474
v 0.793516 -0.007983 0.024065
v 0.771964 0.181420 -0.158631
v 0.903578 0.192855 -0.138780
v 0.590454 0.165638 -0.174701
v 1.059619 0.086199 0.020786
v 0.614162 -0.042714 0.026275
v 1.046077 0.205210 -0.094011
v 0.469828 -0.032997 0.028054
v 1.166116 0.181259 0.019473
v 1.162249 0.215235 -0.013300
v 1.203924 0.218828 0.019008
v 0.448633 0.153270 -0.151619
v 0.333713 0.143202 -0.091577
v 0.348002 0.017624 0.029555
v 0.268450 0.137391 0.030535
v 0.776472 0.181420 0.207237
v 0.922600 0.025683 0.022474
v 0.907558 0.192855 0.184147
v 1.059619 0.086199 0.020786
v 0.793516 -0.007983 0.024065
v 1.048910 0.205210 0.135881
v 0.595414 0.165638 0.227773
v 1.166116 0.181259 0.019473
v 1.163058 0.215235 0.052332
v 1.203924 0.218828 0.019008
v 0.614162 -0.042714 0.026275
v 0.469828 -0.032997 0.028054
v 0.453067 0.153270 0.208193
v 0.336702 0.143202 0.151001
v 0.348002 0.017624 0.029555
v 0.268450 0.137391 0.030535
v -0.282925 0.864399 0.037329
v -0.253041 0.864399 0.066486
v -0.253405 0.933438 0.036966
v -0.252932 0.821235 0.075341
v -0.291781 0.821235 0.037439
v -0.282925 0.781777 0.037329
v -0.253041 0.781777 0.066486
v -0.253405 0.712738 0.036966
v -0.253878 0.821235 -0.001410
v -0.291781 0.821235 0.037439
v -0.282925 0.864399 0.037329
v -0.282925 0.781777 0.037329
v -0.253769 0.864399 0.007445
v -0.253405 0.933438 0.036966
v -0.253769 0.781777 0.007445
v -0.253405 0.712738 0.036966
v -0.282925 0.519417 0.037329
v -0.253405 0.450379 0.036966
v -0.253041 0.519417 0.066486
v -0.252932 0.562581 0.075341
v -0.291781 0.562581 0.037439
v -0.253041 0.602040 0.066486
v -0.282925 0.602040 0.037329
v -0.253405 0.671078 0.036966
v -0.253769 0.519417 0.007445
v -0.282925 0.519417 0.037329
v -0.253878 0.562581 -0.001410
v -0.253405 0.450379 0.036966
v -0.291781 0.562581 0.037439
v -0.253769 0.602040 0.007445
v -0.282925 0.602040 0.037329
v -0.253405 0.671078 0.036966
v -0.216622 0.691907 -0.092825
v -0.254999 0.653529 -0.092352
v -0.255530 0.662386 -0.135512
v -0.254512 0.662386 -0.052896
v -0.226011 0.691907 -0.135876
v -0.256381 0.691907 -0.204545
v -0.224993 0.691907 -0.053260
v -0.253662 0.691907 0.016138
v -0.221760 0.691907 0.209079
v -0.251280 0.662386 0.209443
v -0.213435 0.691907 0.165811
v -0.250429 0.691907 0.278477
v -0.251811 0.653529 0.166284
v -0.252298 0.662386 0.126827
v -0.222778 0.691907 0.126463
v -0.253148 0.691907 0.057795
v -0.526379 -0.608421 0.040330
v -0.608991 -0.569010 -0.229564
v -0.566829 -0.457607 -0.176352
v -0.484231 -0.481723 0.039810
v -0.701797 -0.347908 -0.334107
v -0.561477 -0.457607 0.257942
v -0.761975 -0.425297 -0.425790
v -0.602315 -0.569010 0.312177
v -0.922614 -0.202442 -0.496596
v -0.692517 -0.347908 0.418976
v -0.823769 -0.166387 -0.390097
v -0.750417 -0.425297 0.512112
v -0.949668 0.082498 -0.423470
v -0.909263 -0.202442 0.586856
v -0.852118 0.058948 -0.332417
v -0.813073 -0.166387 0.477956
v -0.934056 0.309284 -0.225477
v -0.938111 0.082498 0.514419
v -0.827798 0.247533 -0.173337
v -0.842834 0.058948 0.420990
v -0.901525 0.406246 0.044953
v -0.927383 0.309286 0.316102
v -0.785792 0.333266 0.043527
v -0.822441 0.247533 0.261359
v -0.566829 -0.457607 -0.176352
v -0.656340 -0.442272 0.041931
v -0.484231 -0.481723 0.039810
v -0.561477 -0.457607 0.257942
v -0.729689 -0.428599 -0.124032
v -0.725577 -0.428599 0.209652
v -0.701797 -0.347908 -0.334107
v -0.692517 -0.347908 0.418976
v -0.833569 -0.344833 -0.243503
v -0.826481 -0.344833 0.331646
v -0.823769 -0.166387 -0.390097
v -0.813073 -0.166387 0.477956
v -0.919687 -0.202193 -0.286943
v -0.911503 -0.202193 0.377195
v -0.948906 -0.032807 -0.241937
v -0.941822 -0.032807 0.332923
v -0.852118 0.058948 -0.332417
v -0.842834 0.058948 0.420990
v -0.928656 0.109642 -0.121383
v -0.924549 0.109642 0.211905
v -0.827798 0.247533 -0.173337
v -0.822441 0.247533 0.261359
v -0.886945 0.179890 0.044773
v -0.785792 0.333266 0.043527
v -0.287280 0.549970 0.037384
v -0.254115 0.596101 -0.014694
v -0.288116 0.568140 -0.030419
v -0.288728 0.617778 -0.080055
v -0.253478 0.582257 0.036967
v -0.254581 0.633921 -0.052511
v -0.252841 0.596101 0.088627
v -0.288951 0.685585 -0.098221
v -0.286445 0.568140 0.105185
v -0.254751 0.685585 -0.066354
v -0.285833 0.617778 0.154821
v -0.254581 0.737249 -0.052511
v -0.252375 0.633921 0.126445
v -0.288728 0.753393 -0.080055
v -0.285609 0.685585 0.172988
v -0.254115 0.775071 -0.014694
v -0.252205 0.685585 0.140287
v -0.288116 0.803032 -0.030419
v -0.252375 0.737249 0.126445
v -0.287280 0.821202 0.037384
v -0.285833 0.753393 0.154821
v -0.253478 0.788915 0.036967
v -0.252841 0.775071 0.088627
v -0.286445 0.803032 0.105185
v -0.254529 0.537790 -0.048357
v -0.253478 0.514926 0.036967
v -0.287280 0.549970 0.037384
v -0.286445 0.568140 0.105185
v -0.288116 0.568140 -0.030419
v -0.252427 0.537790 0.122290
v -0.255299 0.600256 -0.110817
v -0.285833 0.617778 0.154821
v -0.288728 0.617778 -0.080055
v -0.251657 0.600256 0.184752
v -0.288951 0.685585 -0.098221
v -0.285609 0.685585 0.172988
v -0.255581 0.685585 -0.133681
v -0.251375 0.685585 0.207614
v -0.255299 0.770915 -0.110817
v -0.251657 0.770915 0.184752
v -0.288728 0.753393 -0.080055
v -0.285833 0.753393 0.154821
v -0.254529 0.833381 -0.048357
v -0.252427 0.833381 0.122291
v -0.288116 0.803032 -0.030419
v -0.286445 0.803032 0.105185
v -0.253478 0.856245 0.036967
v -0.287280 0.821202 0.037384
v 0.275642 -0.474653 0.030447
v 0.434388 -0.382930 0.209921
v 0.246924 -0.383528 0.030801
v 0.387039 -0.302571 0.189210
v 0.499598 -0.493839 0.227270
v 0.235844 -0.273375 0.030937
v 0.324969 -0.594739 0.029839
v 0.335592 -0.215742 0.143710
v 0.394156 -0.670968 0.028986
v 0.264828 -0.161740 0.030580
v 0.293304 -0.145287 0.062774
v 0.278108 -0.120038 0.030416
v 0.550273 -0.580766 0.205489
v 0.485761 -0.712328 0.027857
v 0.591013 -0.651514 0.146852
v 0.613461 -0.692357 0.026284
v 0.429918 -0.382930 -0.152886
v 0.246924 -0.383528 0.030801
v 0.383093 -0.302571 -0.131015
v 0.235844 -0.273375 0.030937
v 0.275642 -0.474653 0.030447
v 0.332783 -0.215742 -0.084260
v 0.494680 -0.493839 -0.171837
v 0.264828 -0.161740 0.030580
v 0.292502 -0.145287 -0.002308
v 0.278108 -0.120038 0.030416
v 0.324969 -0.594739 0.029839
v 0.394156 -0.670968 0.028986
v 0.545876 -0.580766 -0.151311
v 0.485761 -0.712328 0.027857
v 0.588049 -0.651514 -0.093695
v 0.613461 -0.692357 0.026284
v -0.651760 -0.652998 0.041875
v -0.600341 -0.640062 0.041241
v -0.614065 -0.670247 0.008998
v -0.486464 -0.599060 0.039838
v -0.499775 -0.713699 -0.073532
v -0.349428 -0.729638 -0.121329
v -0.267397 -0.561824 0.037138
v -0.210432 -0.731985 -0.144248
v -0.118005 -0.500312 0.035297
v -0.027926 -0.677262 -0.164576
v 0.112489 -0.558106 -0.145237
v -0.001866 -0.426680 0.033866
v 0.162586 -0.428913 -0.087957
v 0.070431 -0.353044 0.032975
v 0.184472 -0.271050 0.031570
v -0.205979 -0.731985 0.217066
v -0.118005 -0.500312 0.035297
v -0.267397 -0.561824 0.037138
v -0.023028 -0.677262 0.232890
v -0.345498 -0.729638 0.197579
v 0.116867 -0.558106 0.210097
v -0.486464 -0.599060 0.039838
v -0.001866 -0.426680 0.033866
v -0.496977 -0.713699 0.153501
v 0.165538 -0.428913 0.151601
v 0.070431 -0.353044 0.032975
v 0.184472 -0.271050 0.031570
v -0.613266 -0.670247 0.073813
v -0.600341 -0.640062 0.041241
v -0.651760 -0.652998 0.041875
v 0.060278 -0.213475 0.206845
v 0.102580 -0.329642 0.032579
v 0.139118 -0.267436 0.248857
v 0.016828 -0.265954 0.033636
v 0.098677 -0.080552 0.333907
v 0.055997 -0.213476 -0.140591
v 0.173785 -0.104174 0.406919
v 0.133777 -0.267436 -0.184535
v 0.079761 0.094050 0.380134
v 0.091253 -0.080552 -0.268559
v 0.161270 0.115173 0.465303
v 0.164539 -0.104174 -0.343401
v 0.010509 0.255050 0.335122
v 0.071203 0.094050 -0.314308
v 0.063795 0.314726 0.408271
v 0.150589 0.115173 -0.401459
v -0.092240 0.368374 0.208884
v 0.003082 0.255050 -0.267602
v -0.050846 0.457301 0.251134
v 0.054549 0.314726 -0.342040
v -0.117135 0.507444 0.035287
v -0.096526 0.368374 -0.138871
v -0.159492 0.406510 0.035809
v -0.056185 0.457301 -0.182129
v 0.111513 -0.161122 0.032469
v 0.060278 -0.213475 0.206845
v 0.153603 -0.119444 0.165445
v 0.098677 -0.080552 0.333907
v 0.016828 -0.265954 0.033636
v 0.183459 -0.017564 0.261676
v 0.055997 -0.213476 -0.140591
v 0.079761 0.094050 0.380134
v 0.150313 -0.119444 -0.101502
v 0.158865 0.115178 0.297581
v 0.091253 -0.080552 -0.268559
v 0.115877 0.239842 0.262394
v 0.177789 -0.017565 -0.198442
v 0.010509 0.255050 0.335122
v 0.071203 0.094050 -0.314308
v 0.037032 0.324582 0.166722
v 0.152317 0.115178 -0.233729
v -0.092240 0.368374 0.208884
v 0.110210 0.239842 -0.197493
v -0.022831 0.352418 0.034125
v 0.003082 0.255050 -0.267602
v -0.159492 0.406510 0.035809
v 0.033746 0.324582 -0.099908
v -0.096526 0.368374 -0.138871
v -0.254999 0.653529 -0.092352
v -0.293375 0.691907 -0.091879
v -0.285050 0.691907 -0.135148
v -0.284032 0.691907 -0.052532
v -0.255530 0.662386 -0.135512
v -0.256381 0.691907 -0.204545
v -0.254512 0.662386 -0.052896
v -0.253662 0.691907 0.016138
v -0.251280 0.662386 0.209443
v -0.280799 0.691907 0.209807
v -0.251811 0.653529 0.166284
v -0.250429 0.691907 0.278477
v -0.290187 0.691907 0.166757
v -0.281817 0.691907 0.127191
v -0.252298 0.662386 0.126827
v -0.253148 0.691907 0.057795
v -1.315421 -0.329391 0.050053
v -1.235329 -0.408166 0.049066
v -1.317058 -0.293791 -0.082796
v -1.313784 -0.293791 0.182902
v -1.237452 -0.362012 -0.123168
v -1.233207 -0.362012 0.221300
v -1.239005 -0.235919 -0.249251
v -1.231652 -0.235919 0.347384
v -1.318257 -0.196531 -0.180049
v -1.312586 -0.196531 0.280155
v -1.239573 -0.063672 -0.295402
v -1.231084 -0.063672 0.393534
v -1.318696 -0.063672 -0.215646
v -1.312147 -0.063672 0.315751
v -1.318257 0.069187 -0.180049
v -1.312586 0.069187 0.280155
v -1.239005 0.108575 -0.249251
v -1.231652 0.108575 0.347384
v -1.317058 0.166446 -0.082796
v -1.313784 0.166446 0.182902
v -1.237452 0.234667 -0.123168
v -1.233207 0.234667 0.221300
v -1.235329 0.280822 0.049066
v -1.315421 0.202047 0.050053
v -1.318044 -0.432347 -0.162786
v -1.235329 -0.408166 0.049066
v -1.315421 -0.489381 0.050053
v -1.312799 -0.432347 0.262891
v -1.237452 -0.362012 -0.123168
v -1.233207 -0.362012 0.221300
v -1.239005 -0.235919 -0.249251
v -1.231652 -0.235919 0.347384
v -1.319964 -0.276526 -0.318594
v -1.310879 -0.276526 0.418699
v -1.239573 -0.063672 -0.295402
v -1.231084 -0.063672 0.393534
v -1.320667 -0.063672 -0.375624
v -1.310176 -0.063672 0.475730
v -1.319964 0.149182 -0.318594
v -1.310879 0.149182 0.418699
v -1.239005 0.108575 -0.249251
v -1.231652 0.108575 0.347384
v -1.318044 0.305002 -0.162786
v -1.312799 0.305002 0.262891
v -1.237452 0.234667 -0.123168
v -1.233207 0.234667 0.221300
v -1.315421 0.362036 0.050053
v -1.235329 0.280822 0.049066
v 1.108612 -0.197815 0.020182
v 1.099729 -0.365425 0.206472
v 1.185900 -0.305588 0.183557
v 1.012163 -0.243321 0.021371
v 1.223693 -0.164207 0.018764
v 0.980659 -0.448010 0.226566
v 1.278715 -0.240930 0.135072
v 0.884332 -0.313690 0.022946
v 1.337762 -0.166564 0.017358
v 1.353470 -0.188468 0.050562
v 1.380218 -0.169667 0.016835
v 0.800773 -0.392656 0.023975
v 0.886891 -0.512739 0.206011
v 0.751994 -0.484463 0.024577
v 0.810053 -0.565420 0.147302
v 0.764600 -0.595833 0.024421
v 1.108612 -0.197815 0.020182
v 1.095141 -0.365425 -0.165833
v 1.012163 -0.243321 0.021371
v 1.181850 -0.305588 -0.145049
v 0.975612 -0.448010 -0.182987
v 1.223693 -0.164207 0.018764
v 0.884332 -0.313690 0.022946
v 1.275832 -0.240930 -0.098864
v 0.800773 -0.392656 0.023975
v 1.337762 -0.166564 0.017358
v 1.352647 -0.188468 -0.016224
v 1.380218 -0.169667 0.016835
v 0.882379 -0.512739 -0.160128
v 0.751994 -0.484463 0.024577
v 0.807012 -0.565420 -0.099543
v 0.764600 -0.595833 0.024421
v -1.743669 -0.314311 0.055330
v -1.745213 -0.280732 -0.069980
v -1.827371 -0.207589 -0.026735
v -1.828121 -0.146763 -0.087557
v -1.826347 -0.229853 0.056349
v -1.746343 -0.188992 -0.161713
v -1.742125 -0.280732 0.180640
v -1.828395 -0.063672 -0.109819
v -1.825324 -0.207589 0.139433
v -1.746757 -0.063672 -0.195290
v -1.824574 -0.146763 0.200256
v -1.746343 0.061647 -0.161713
v -1.740994 -0.188992 0.272374
v -1.828121 0.019418 -0.087557
v -1.740580 -0.063672 0.305950
v -1.827371 0.080245 -0.026735
v -1.824300 -0.063672 0.222518
v -1.745213 0.153388 -0.069980
v -1.740994 0.061647 0.272374
v -1.743669 0.186966 0.055330
v -1.824574 0.019418 0.200256
v -1.826347 0.102509 0.056349
v -1.742125 0.153388 0.180640
v -1.825324 0.080245 0.139433
v -1.743669 -0.314311 0.055330
v -1.826347 -0.395320 0.056349
v -1.745213 -0.280732 -0.069980
v -1.742125 -0.280732 0.180640
v -1.828391 -0.350887 -0.109462
v -1.824304 -0.350887 0.222160
v -1.746343 -0.188992 -0.161713
v -1.740994 -0.188992 0.272374
v -1.829887 -0.229495 -0.230844
v -1.822808 -0.229495 0.343541
v -1.830434 -0.063672 -0.275273
v -1.822261 -0.063672 0.387971
v -1.746757 -0.063672 -0.195290
v -1.740580 -0.063672 0.305950
v -1.746343 0.061647 -0.161713
v -1.740994 0.061647 0.272374
v -1.829887 0.102151 -0.230844
v -1.822808 0.102151 0.343541
v -1.828391 0.223542 -0.109462
v -1.824304 0.223542 0.222160
v -1.745213 0.153388 -0.069980
v -1.742125 0.153388 0.180640
v -1.826347 0.267974 0.056349
v -1.743669 0.186966 0.055330
v -2.136375 -0.264184 0.060170
v -2.137610 -0.237320 -0.040079
v -2.203337 -0.178806 -0.005483
v -2.138515 -0.163928 -0.113465
v -2.202518 -0.196617 0.060985
v -2.203937 -0.130145 -0.054141
v -2.201699 -0.178806 0.127452
v -2.204155 -0.063672 -0.071950
v -2.135140 -0.237320 0.160417
v -2.138846 -0.063672 -0.140327
v -2.201098 -0.130145 0.176109
v -2.203937 0.002800 -0.054141
v -2.134236 -0.163928 0.233804
v -2.138515 0.036584 -0.113465
v -2.133904 -0.063672 0.260666
v -2.203337 0.051462 -0.005483
v -2.200880 -0.063672 0.193919
v -2.137610 0.109976 -0.040079
v -2.201098 0.002800 0.176109
v -2.202518 0.069273 0.060985
v -2.134236 0.036584 0.233805
v -2.136375 0.136840 0.060170
v -2.201699 0.051462 0.127452
v -2.135140 0.109976 0.160417
v -2.136375 -0.264184 0.060170
v -2.202518 -0.328989 0.060985
v -2.137610 -0.237320 -0.040079
v -2.135140 -0.237320 0.160417
v -2.204153 -0.293443 -0.071664
v -2.200882 -0.293443 0.193633
v -2.138515 -0.163928 -0.113465
v -2.134236 -0.163928 0.233804
v -2.205348 -0.196331 -0.168770
v -2.199687 -0.196331 0.290738
v -2.205787 -0.063672 -0.204312
v -2.199249 -0.063672 0.326282
v -2.138846 -0.063672 -0.140327
v -2.133904 -0.063672 0.260666
v -2.138515 0.036584 -0.113465
v -2.134236 0.036584 0.233805
v -2.205348 0.068986 -0.168770
v -2.199687 0.068986 0.290738
v -2.204153 0.166098 -0.071664
v -2.200882 0.166098 0.193633
v -2.137610 0.109976 -0.040079
v -2.135140 0.109976 0.160417
v -2.202518 0.201645 0.060985
v -2.136375 0.136840 0.060170
v 1.474079 -0.268090 -0.157709
v 1.495847 -0.310193 0.015410
v 1.544081 -0.175479 0.014816
v 1.478352 -0.268090 0.189013
v 1.528698 -0.145725 -0.107525
v 1.531717 -0.145725 0.137498
v 1.418881 -0.153063 -0.283956
v 1.426281 -0.153063 0.316582
v 1.489692 -0.064437 -0.196743
v 1.494921 -0.064437 0.227650
v 1.345043 0.004068 -0.329506
v 1.353588 0.004068 0.363939
v 1.437510 0.046605 -0.228932
v 1.443549 0.046605 0.261114
v 1.386138 0.157646 -0.195467
v 1.391368 0.157646 0.228926
v 1.272350 0.161198 -0.282150
v 1.279750 0.161198 0.318388
v 1.220280 0.276225 -0.154581
v 1.224552 0.276225 0.192140
v 1.349342 0.238935 -0.105315
v 1.352361 0.238935 0.139708
v 1.202784 0.318328 0.019022
v 1.336979 0.268688 0.017368
v 1.629165 -0.357958 0.013767
v 1.474079 -0.268090 -0.157709
v 1.601143 -0.303757 -0.209096
v 1.495847 -0.310193 0.015410
v 1.418881 -0.153063 -0.283956
v 1.478352 -0.268090 0.189013
v 1.530085 -0.155677 -0.371623
v 1.606643 -0.303757 0.237254
v 1.435029 0.046605 -0.430260
v 1.426281 -0.153063 0.316582
v 1.345043 0.004068 -0.329506
v 1.539612 -0.155677 0.401481
v 1.272350 0.161198 -0.282150
v 1.446030 0.046605 0.462444
v 1.341448 0.248886 -0.369298
v 1.353588 0.004068 0.363939
v 1.220280 0.276225 -0.154581
v 1.279750 0.161198 0.318388
v 1.274415 0.396965 -0.205070
v 1.350975 0.248886 0.403806
v 1.202784 0.318328 0.019022
v 1.224552 0.276225 0.192140
v 1.251893 0.451167 0.018416
v 1.279915 0.396965 0.241280
v -2.393785 -0.224081 0.063342
v -2.394773 -0.202590 -0.016857
v -2.447355 -0.155779 0.010820
v -2.447834 -0.116850 -0.028106
v -2.446700 -0.170028 0.063994
v -2.395497 -0.143877 -0.075567
v -2.392797 -0.202590 0.143540
v -2.448011 -0.063672 -0.042354
v -2.446045 -0.155779 0.117168
v -2.395761 -0.063672 -0.097056
v -2.392074 -0.143877 0.202249
v -2.395497 0.016533 -0.075567
v -2.445565 -0.116850 0.156094
v -2.447834 -0.010494 -0.028106
v -2.391809 -0.063672 0.223739
v -2.394773 0.075247 -0.016857
v -2.445390 -0.063672 0.170342
v -2.447355 0.028435 0.010820
v -2.445565 -0.010494 0.156094
v -2.393785 0.096737 0.063342
v -2.392074 0.016533 0.202249
v -2.446700 0.042684 0.063994
v -2.446045 0.028435 0.117168
v -2.392797 0.075247 0.143540
v -2.393785 -0.224081 0.063342
v -2.446700 -0.275927 0.063994
v -2.394773 -0.202590 -0.016857
v -2.392797 -0.202590 0.143540
v -2.448008 -0.247489 -0.042125
v -2.445393 -0.247489 0.170113
v -2.395497 -0.143877 -0.075567
v -2.392074 -0.143877 0.202249
v -2.448965 -0.169799 -0.119810
v -2.444435 -0.169799 0.247797
v -2.449316 -0.063672 -0.148244
v -2.444085 -0.063672 0.276231
v -2.395761 -0.063672 -0.097056
v -2.391809 -0.063672 0.223739
v -2.395497 0.016533 -0.075567
v -2.392074 0.016533 0.202249
v -2.448965 0.042455 -0.119810
v -2.444435 0.042455 0.247797
v -2.448008 0.120145 -0.042125
v -2.445393 0.120145 0.170112
v -2.394773 0.075247 -0.016857
v -2.392797 0.075247 0.143540
v -2.446700 0.148582 0.063994
v -2.393785 0.096737 0.063342
vn -0.7145 0.6996 0.0088
vn -0.7102 0.6058 0.3586
vn -0.7071 0.3498 0.6146
vn -0.7188 0.6058 -0.3410
vn -0.7061 0.0004 0.7081
vn -0.7061 0.0003 0.7082
vn -0.7220 0.3498 -0.5970
vn -0.7071 -0.3498 0.6146
vn -0.7231 -0.0000 -0.6907
vn -0.7102 -0.6058 0.3586
vn -0.7102 -0.6058 0.3585
vn -0.7220 -0.3498 -0.5970
vn -0.7145 -0.6996 0.0088
vn -0.7188 -0.6058 -0.3410
vn -0.7188 -0.6058 -0.3409
vn -0.6998 -0.7143 0.0086
vn -0.7042 -0.6186 -0.3485
vn -0.7074 -0.3572 -0.6099
vn -0.6954 -0.6186 0.3657
vn -0.6954 -0.6186 0.3658
vn -0.7086 -0.0000 -0.7056
vn -0.6921 -0.3572 0.6272
vn -0.7074 0.3572 -0.6099
vn -0.6908 0.0003 0.7230
vn -0.6910 -0.0000 0.7229
vn -0.7042 0.6186 -0.3485
vn -0.6921 0.3568 0.6275
vn -0.6921 0.3572 0.6272
vn -0.6998 0.7143 0.0086
vn -0.6954 0.6186 0.3658
vn 0.3469 0.9379 -0.0043
vn 0.3910 0.8525 0.3469
vn 0.3824 0.8525 -0.3564
vn 0.5030 0.6191 0.6030
vn 0.4880 0.6191 -0.6152
vn 0.6528 0.3004 0.6954
vn 0.6355 0.3004 -0.7113
vn 0.6353 0.3011 -0.7111
vn 0.8003 -0.0184 0.5994
vn 0.7853 -0.0184 -0.6189
vn 0.7850 -0.0186 -0.6192
vn 0.9059 -0.2517 0.3406
vn 0.8972 -0.2517 -0.3628
vn 0.9414 -0.3371 -0.0116
vn 0.8933 -0.2605 -0.3664
vn 0.9379 -0.3468 -0.0116
vn 0.9020 -0.2605 0.3442
vn 0.7803 -0.0243 -0.6249
vn 0.7953 -0.0247 0.6057
vn 0.7801 -0.0247 -0.6251
vn 0.6288 0.2973 -0.7185
vn 0.6463 0.2973 0.7028
vn 0.4798 0.6194 -0.6214
vn 0.4950 0.6194 0.6094
vn 0.3731 0.8551 -0.3600
vn 0.3818 0.8551 0.3507
vn 0.3372 0.9414 -0.0042
vn -0.7070 0.3498 0.6146
vn -0.7188 0.6058 -0.3409
vn -0.7059 -0.0000 0.7083
vn -0.7070 -0.3498 0.6146
vn -0.7074 -0.3572 -0.6100
vn -0.7074 0.3572 -0.6100
vn -0.7062 0.0006 0.7080
vn -0.7221 0.3501 -0.5966
vn -0.7232 0.0005 -0.6906
vn -0.7233 0.0004 -0.6906
vn -0.7041 0.6184 -0.3489
vn 0.5807 -0.5260 -0.6214
vn 0.5184 -0.5803 -0.6281
vn 0.5782 -0.5281 -0.6219
vn 0.5191 -0.5798 -0.6280
vn 0.6978 -0.3997 -0.5944
vn 0.4220 -0.6521 -0.6298
vn 0.6896 -0.4102 -0.5968
vn 0.4218 -0.6523 -0.6298
vn 0.7940 -0.2621 -0.5485
vn 0.7926 -0.2645 -0.5494
vn 0.8082 -0.2374 -0.5390
vn 0.2353 -0.7564 -0.6103
vn 0.2444 -0.7525 -0.6116
vn -0.0858 -0.8498 -0.5200
vn -0.0484 -0.8441 -0.5339
vn -0.4244 -0.8351 -0.3501
vn 0.5337 -0.5803 0.6151
vn 0.5961 -0.5256 0.6070
vn 0.5938 -0.5278 0.6073
vn 0.7126 -0.3997 0.5766
vn 0.5344 -0.5798 0.6150
vn 0.7041 -0.4102 0.5797
vn 0.4372 -0.6525 0.6190
vn 0.8073 -0.2621 0.5288
vn 0.8059 -0.2644 0.5297
vn 0.8212 -0.2374 0.5189
vn 0.4372 -0.6523 0.6192
vn 0.2503 -0.7564 0.6043
vn 0.2588 -0.7526 0.6056
vn -0.0730 -0.8498 0.5220
vn -0.0353 -0.8441 0.5350
vn -0.4157 -0.8351 0.3604
vn -0.7011 0.7130 0.0086
vn -0.6972 0.6172 0.3648
vn -0.6967 0.6174 0.3651
vn -0.6935 0.3565 0.6260
vn -0.7059 0.6171 -0.3478
vn -0.6927 0.0005 0.7212
vn -0.7055 0.6174 -0.3478
vn -0.7088 0.3565 -0.6088
vn -0.6935 -0.3565 0.6260
vn -0.7101 0.0009 -0.7041
vn -0.6967 -0.6174 0.3651
vn -0.7101 0.0004 -0.7041
vn -0.7088 -0.3565 -0.6088
vn -0.7011 -0.7130 0.0080
vn -0.7011 -0.7130 0.0086
vn -0.7058 -0.6172 -0.3478
vn -0.7163 -0.6081 -0.3423
vn -0.7119 -0.7022 0.0088
vn -0.7076 -0.6081 0.3598
vn -0.7194 -0.3511 -0.5993
vn -0.7044 -0.3511 0.6168
vn -0.7206 -0.0000 -0.6934
vn -0.7033 -0.0000 0.7109
vn -0.7194 0.3511 -0.5993
vn -0.7044 0.3511 0.6168
vn -0.7163 0.6081 -0.3423
vn -0.7076 0.6081 0.3598
vn -0.7119 0.7022 0.0088
vn 0.6841 0.7294 -0.0086
vn 0.6526 0.5746 -0.4939
vn 0.6568 0.5345 -0.5319
vn 0.6601 0.3560 -0.6614
vn 0.6644 0.5744 0.4782
vn 0.6608 0.3407 -0.6688
vn 0.6697 0.5346 0.5154
vn 0.6898 0.1829 -0.7005
vn 0.6763 0.3561 0.6448
vn 0.6768 0.3405 0.6527
vn 0.7471 0.0289 -0.6640
vn 0.7065 0.1828 0.6837
vn 0.7416 0.0375 -0.6698
vn 0.8424 -0.1450 -0.5190
vn 0.7634 0.0290 0.6453
vn 0.8313 -0.1212 -0.5425
vn 0.7580 0.0375 0.6512
vn 0.9629 -0.2696 -0.0120
vn 0.8546 -0.1449 0.4987
vn 0.8445 -0.1212 0.5216
vn 0.6933 0.6907 0.2054
vn 0.6804 0.6768 0.2811
vn 0.7068 0.7074 -0.0031
vn 0.7071 0.7071 -0.0027
vn 0.6892 0.6918 -0.2153
vn 0.6732 0.6768 -0.2978
vn 0.6881 0.6907 -0.2225
vn 0.7070 0.7071 -0.0147
vn 0.7067 0.7073 -0.0146
vn 0.6943 0.6918 0.1982
vn 0.6800 0.6771 0.2813
vn 0.7720 -0.6078 0.1861
vn 0.7658 -0.6430 -0.0096
vn 0.7696 -0.5943 0.2336
vn 0.7659 -0.6429 -0.0096
vn 0.7613 -0.3703 0.5323
vn 0.7673 -0.6078 -0.2044
vn 0.7577 -0.3207 0.5683
vn 0.7635 -0.5943 -0.2528
vn 0.6746 0.1743 0.7173
vn 0.7478 -0.3702 -0.5511
vn 0.6741 0.1744 0.7177
vn 0.7433 -0.3207 -0.5870
vn 0.5193 0.6286 0.5789
vn 0.6571 0.1744 -0.7334
vn 0.4999 0.6762 0.5412
vn 0.6566 0.1745 -0.7338
vn 0.4213 0.8660 0.2693
vn 0.5048 0.6285 -0.5917
vn 0.4171 0.8837 0.2125
vn 0.4863 0.6761 -0.5535
vn 0.4011 0.9160 -0.0051
vn 0.4146 0.8662 -0.2789
vn 0.4118 0.8838 -0.2220
vn -0.1515 -0.7309 0.6655
vn 0.0177 -0.7243 0.6893
vn -0.1648 -0.7283 0.6651
vn -0.3846 -0.6488 0.6566
vn 0.0413 -0.7197 0.6930
vn -0.3665 -0.6573 0.6585
vn 0.3518 -0.6097 0.7103
vn -0.6245 -0.4691 0.6245
vn -0.6237 -0.4711 0.6237
vn -0.6859 -0.3623 0.6311
vn 0.3422 -0.6142 0.7111
vn 0.6491 -0.3638 0.6681
vn 0.6858 -0.3133 0.6569
vn 0.8252 0.0081 0.5648
vn 0.8323 0.0603 0.5511
vn 0.8371 0.2639 0.4791
vn -0.1678 -0.7307 -0.6618
vn 0.0009 -0.7246 -0.6891
vn 0.0243 -0.7197 -0.6938
vn -0.1813 -0.7286 -0.6605
vn 0.3341 -0.6096 -0.7189
vn -0.4006 -0.6486 -0.6472
vn 0.3247 -0.6145 -0.7190
vn -0.3826 -0.6572 -0.6494
vn 0.6324 -0.3637 -0.6840
vn -0.6400 -0.4693 -0.6085
vn -0.6388 -0.4710 -0.6083
vn -0.7013 -0.3623 -0.6140
vn 0.6693 -0.3132 -0.6737
vn 0.8107 0.0077 -0.5854
vn 0.8188 0.0603 -0.5709
vn 0.8251 0.2639 -0.4996
vn 0.4733 0.5411 -0.6951
vn 0.5322 0.4642 -0.7080
vn 0.6123 0.3385 -0.7145
vn 0.3421 0.6790 -0.6496
vn 0.7158 0.1104 -0.6895
vn 0.1868 0.7981 -0.5729
vn 0.1871 0.7978 -0.5732
vn 0.1605 0.8140 -0.5583
vn 0.7843 -0.2293 -0.5765
vn 0.7845 -0.2295 -0.5760
vn 0.7342 -0.5800 -0.3529
vn 0.5495 0.4642 0.6947
vn 0.4903 0.5415 0.6829
vn 0.4903 0.5411 0.6833
vn 0.3580 0.6790 0.6409
vn 0.3580 0.6790 0.6410
vn 0.6297 0.3385 0.6992
vn 0.2011 0.7978 0.5684
vn 0.1739 0.8143 0.5538
vn 0.7326 0.1104 0.6717
vn 0.7982 -0.2293 0.5570
vn 0.7426 -0.5800 0.3348
vn -0.9785 0.2057 0.0119
vn -0.8627 0.0926 0.4972
vn -0.8435 0.0575 0.5341
vn -0.7343 -0.1174 0.6686
vn -0.8750 0.0927 -0.4752
vn -0.7208 -0.1402 0.6788
vn -0.8563 0.0575 -0.5133
vn -0.6603 -0.2466 0.7094
vn -0.7504 -0.1174 -0.6505
vn -0.6604 -0.2466 0.7093
vn -0.7371 -0.1402 -0.6610
vn -0.6369 -0.3815 0.6699
vn -0.6775 -0.2466 -0.6929
vn -0.6398 -0.3625 0.6777
vn -0.6775 -0.2466 -0.6930
vn -0.6102 -0.5801 0.5395
vn -0.6536 -0.3816 -0.6536
vn -0.6049 -0.6059 0.5168
vn -0.6562 -0.3625 -0.6619
vn -0.6340 -0.7733 0.0077
vn -0.6233 -0.5800 -0.5245
vn -0.6176 -0.6061 -0.5012
vn -0.2838 -0.9396 -0.1915
vn -0.2586 -0.9660 0.0031
vn -0.2585 -0.9660 0.0031
vn -0.2789 -0.9395 0.1991
vn -0.2901 -0.9264 -0.2399
vn -0.2842 -0.9265 0.2468
vn -0.3971 -0.7550 -0.5217
vn -0.3842 -0.7551 0.5312
vn -0.4232 -0.7121 -0.5602
vn -0.4093 -0.7122 0.5703
vn -0.6579 -0.2475 -0.7113
vn -0.6402 -0.2476 0.7272
vn -0.6578 -0.2475 -0.7113
vn -0.7885 0.2391 -0.5666
vn -0.7745 0.2391 0.5857
vn -0.7994 0.2894 -0.5265
vn -0.7863 0.2895 0.5458
vn -0.8425 0.4699 -0.2634
vn -0.8356 0.4698 0.2848
vn -0.8493 0.4860 -0.2063
vn -0.8438 0.4859 0.2278
vn -0.8541 0.5201 0.0104
vn 0.6906 0.7232 -0.0085
vn 0.6910 0.7228 -0.0086
vn 0.6951 0.6263 0.3530
vn 0.6862 0.6263 -0.3701
vn 0.6984 0.3616 0.6177
vn 0.6829 0.3616 -0.6347
vn 0.6996 -0.0000 0.7146
vn 0.6817 -0.0000 -0.7316
vn 0.6995 -0.0000 0.7146
vn 0.6984 -0.3616 0.6177
vn 0.6829 -0.3616 -0.6347
vn 0.6953 -0.6258 0.3535
vn 0.6862 -0.6263 -0.3701
vn 0.6951 -0.6263 0.3530
vn 0.6910 -0.7228 -0.0086
vn 0.6906 -0.7232 -0.0085
vn 0.7154 -0.6012 -0.3560
vn 0.7197 -0.6943 -0.0089
vn 0.7240 -0.6012 0.3382
vn 0.7119 -0.3473 -0.6103
vn 0.7271 -0.3471 0.5923
vn 0.7118 -0.3473 -0.6105
vn 0.7111 -0.0000 -0.7031
vn 0.7280 0.0003 0.6856
vn 0.7111 -0.0000 -0.7030
vn 0.7279 0.0004 0.6857
vn 0.7123 0.3471 -0.6101
vn 0.7271 0.3471 0.5923
vn 0.7154 0.6012 -0.3560
vn 0.7240 0.6012 0.3382
vn 0.7239 0.6012 0.3382
vn 0.7193 0.6947 -0.0092
vn 0.7197 0.6943 -0.0089
vn -0.6943 0.6918 -0.1982
vn -0.6804 0.6768 -0.2811
vn -0.7070 0.7071 0.0147
vn -0.6881 0.6907 0.2225
vn -0.6732 0.6768 0.2977
vn -0.6892 0.6918 0.2153
vn -0.6895 0.6915 0.2156
vn -0.7071 0.7071 0.0027
vn -0.6933 0.6907 -0.2054
vn -0.6803 0.6770 -0.2808
vn 0.6983 -0.0060 -0.7158
vn 0.6833 0.2068 -0.7003
vn 0.6685 0.2894 -0.6851
vn 0.6822 -0.2140 -0.6992
vn 0.6685 -0.2894 -0.6851
vn 0.6992 -0.2140 0.6822
vn 0.6992 -0.2139 0.6822
vn 0.6851 -0.2894 0.6684
vn 0.7158 -0.0060 0.6983
vn 0.7157 -0.0060 0.6983
vn 0.7003 0.2068 0.6833
vn 0.7003 0.2068 0.6832
vn 0.6851 0.2894 0.6684
vn 0.6983 0.0060 -0.7158
vn 0.6833 -0.2068 -0.7003
vn 0.6822 0.2140 -0.6992
vn 0.6992 0.2140 0.6822
vn 0.6992 0.2139 0.6822
vn 0.7158 0.0060 0.6983
vn 0.7158 0.0067 0.6983
vn 0.7003 -0.2068 0.6832
vn 0.1146 0.6964 0.7084
vn 0.0414 0.6961 0.7168
vn 0.0419 0.6961 0.7167
vn 0.1159 0.6964 0.7083
vn -0.0671 0.6887 0.7219
vn 0.2669 0.6846 0.6783
vn -0.0683 0.6886 0.7219
vn 0.2707 0.6841 0.6773
vn -0.2583 0.6553 0.7098
vn 0.4213 0.6540 0.6283
vn 0.4207 0.6542 0.6286
vn 0.4470 0.6469 0.6179
vn -0.2581 0.6553 0.7098
vn -0.5467 0.5483 0.6329
vn -0.5507 0.5462 0.6312
vn -0.8249 0.3411 0.4509
vn 0.0242 0.6961 -0.7175
vn 0.0971 0.6964 -0.7110
vn 0.0984 0.6964 -0.7109
vn 0.0238 0.6961 -0.7176
vn 0.2501 0.6846 -0.6846
vn -0.0848 0.6887 -0.7200
vn 0.2535 0.6842 -0.6839
vn -0.0860 0.6886 -0.7200
vn 0.4056 0.6544 -0.6382
vn 0.4051 0.6542 -0.6387
vn 0.4316 0.6469 -0.6287
vn -0.2757 0.6553 -0.7033
vn -0.2756 0.6553 -0.7033
vn -0.5621 0.5483 -0.6192
vn -0.5658 0.5461 -0.6177
vn -0.8357 0.3411 -0.4304
vn 0.2169 -0.6648 -0.7148
vn 0.1439 -0.6785 -0.7204
vn 0.1437 -0.6785 -0.7204
vn 0.2167 -0.6649 -0.7148
vn 0.0342 -0.6918 -0.7213
vn 0.3673 -0.6237 -0.6900
vn 0.0356 -0.6917 -0.7213
vn 0.3679 -0.6235 -0.6898
vn -0.1555 -0.6949 -0.7021
vn 0.5152 -0.5639 -0.6454
vn 0.5154 -0.5638 -0.6453
vn 0.5403 -0.5516 -0.6355
vn -0.1585 -0.6948 -0.7016
vn -0.4603 -0.6429 -0.6122
vn -0.4521 -0.6454 -0.6157
vn -0.7548 -0.4979 -0.4271
vn 0.1619 -0.6784 0.7167
vn 0.2345 -0.6648 0.7092
vn 0.2343 -0.6649 0.7093
vn 0.3842 -0.6237 0.6807
vn 0.1616 -0.6785 0.7166
vn 0.3848 -0.6235 0.6806
vn 0.0515 -0.6914 0.7207
vn 0.5309 -0.5640 0.6325
vn 0.5314 -0.5640 0.6321
vn 0.5557 -0.5516 0.6220
vn 0.0533 -0.6917 0.7202
vn -0.1378 -0.6950 0.7057
vn -0.1415 -0.6950 0.7049
vn -0.4450 -0.6429 0.6234
vn -0.4368 -0.6454 0.6267
vn -0.7440 -0.4979 0.4456
vn -0.6833 0.2068 0.7003
vn -0.6685 0.2894 0.6851
vn -0.6983 -0.0060 0.7158
vn -0.6822 -0.2140 0.6992
vn -0.6822 -0.2139 0.6992
vn -0.6685 -0.2894 0.6851
vn -0.7158 -0.0060 -0.6983
vn -0.7003 0.2068 -0.6832
vn -0.6992 -0.2140 -0.6822
vn -0.6851 0.2894 -0.6684
vn -0.6992 -0.2139 -0.6822
vn -0.6851 -0.2894 -0.6684
vn -0.6833 -0.2068 0.7003
vn -0.6983 0.0060 0.7158
vn -0.6822 0.2140 0.6992
vn -0.7003 -0.2068 -0.6832
vn -0.7158 0.0060 -0.6983
vn -0.6992 0.2140 -0.6822
vn 0.7068 -0.7074 -0.0033
vn 0.7067 -0.7075 -0.0032
vn 0.6892 -0.6918 -0.2153
vn 0.6933 -0.6907 0.2054
vn 0.6732 -0.6768 -0.2977
vn 0.6804 -0.6768 0.2811
vn 0.6943 -0.6918 0.1982
vn 0.7067 -0.7074 -0.0146
vn 0.6803 -0.6769 0.2811
vn 0.7070 -0.7071 -0.0147
vn 0.6880 -0.6907 -0.2225
vn 0.6732 -0.6769 -0.2977
vn 0.9653 -0.2609 -0.0120
vn 0.8586 -0.0832 -0.5059
vn 0.8750 -0.1240 -0.4680
vn 0.7456 0.1383 -0.6518
vn 0.8864 -0.1240 0.4461
vn 0.7305 0.1668 -0.6623
vn 0.8705 -0.0831 0.4851
vn 0.6778 0.2533 -0.6902
vn 0.7616 0.1383 0.6331
vn 0.7467 0.1669 0.6439
vn 0.6619 0.3512 -0.6623
vn 0.6943 0.2532 0.6737
vn 0.6572 0.3721 -0.6555
vn 0.6943 0.2532 0.6736
vn 0.6020 0.6117 -0.5133
vn 0.6777 0.3510 0.6462
vn 0.5936 0.6382 -0.4903
vn 0.6732 0.3721 0.6390
vn 0.5862 0.8101 -0.0074
vn 0.6146 0.6117 0.4981
vn 0.5862 0.8101 -0.0073
vn 0.6056 0.6382 0.4753
vn 0.2378 0.9570 0.1662
vn 0.2024 0.9793 -0.0026
vn 0.2023 0.9793 -0.0026
vn 0.2335 0.9572 -0.1713
vn 0.2508 0.9406 0.2287
vn 0.2452 0.9408 -0.2342
vn 0.3875 0.7588 0.5235
vn 0.3744 0.7587 -0.5331
vn 0.4179 0.7105 0.5662
vn 0.4043 0.7103 -0.5763
vn 0.6511 0.2437 0.7188
vn 0.6331 0.2437 -0.7347
vn 0.7834 -0.2390 0.5737
vn 0.7689 -0.2390 -0.5930
vn 0.7942 -0.2960 0.5308
vn 0.7807 -0.2959 -0.5503
vn 0.8253 -0.5014 0.2597
vn 0.8186 -0.5014 -0.2801
vn 0.8297 -0.5249 0.1900
vn 0.8253 -0.5245 -0.2094
vn 0.8257 -0.5640 -0.0103
vn -0.6912 0.7226 0.0084
vn -0.6862 0.6263 0.3701
vn -0.6829 0.3616 0.6347
vn -0.6910 0.7228 0.0084
vn -0.6951 0.6263 -0.3530
vn -0.6817 -0.0000 0.7316
vn -0.6951 0.6266 -0.3525
vn -0.6983 0.3616 -0.6177
vn -0.6829 -0.3616 0.6347
vn -0.6995 -0.0000 -0.7146
vn -0.6862 -0.6263 0.3701
vn -0.6984 -0.3616 -0.6177
vn -0.6912 -0.7226 0.0084
vn -0.6983 -0.3616 -0.6177
vn -0.6906 -0.7232 0.0085
vn -0.6953 -0.6261 -0.3529
vn -0.6956 -0.6259 -0.3527
vn -0.7239 -0.6012 -0.3382
vn -0.7197 -0.6943 0.0089
vn -0.7154 -0.6012 0.3560
vn -0.7239 -0.6013 -0.3382
vn -0.7266 -0.3473 -0.5928
vn -0.7123 -0.3471 0.6101
vn -0.7267 -0.3473 -0.5926
vn -0.7282 -0.0000 -0.6853
vn -0.7111 -0.0000 0.7031
vn -0.7271 0.3471 -0.5924
vn -0.7123 0.3471 0.6101
vn -0.7267 0.3473 -0.5927
vn -0.7239 0.6013 -0.3382
vn -0.7154 0.6012 0.3560
vn -0.7197 0.6943 0.0089
vn -0.6607 -0.2450 0.7096
vn -0.6990 -0.1559 0.6979
vn -0.5902 -0.3760 0.7144
vn -0.7555 0.0265 0.6547
vn -0.5901 -0.3763 0.7143
vn -0.4418 -0.5779 0.6862
vn -0.7838 0.2206 0.5805
vn -0.7852 0.2523 0.5656
vn -0.1797 -0.8024 0.5690
vn 0.1493 -0.9277 0.3421
vn -0.6779 -0.2450 -0.6931
vn -0.7160 -0.1559 -0.6805
vn -0.7714 0.0265 -0.6359
vn -0.6075 -0.3757 -0.6998
vn -0.7979 0.2206 -0.5610
vn -0.7989 0.2523 -0.5460
vn -0.6075 -0.3763 -0.6995
vn -0.4586 -0.5779 -0.6751
vn -0.1937 -0.8024 -0.5644
vn 0.1408 -0.9277 -0.3456
vn -0.2335 0.7143 -0.6598
vn -0.1700 0.7130 -0.6802
vn -0.1645 0.7127 -0.6819
vn -0.1255 0.7099 -0.6930
vn -0.1997 0.6857 -0.7000
vn -0.2130 0.6808 -0.7008
vn -0.3376 0.6269 -0.7022
vn -0.3376 0.6268 -0.7022
vn -0.4408 0.5620 -0.6999
vn -0.4543 0.5505 -0.7004
vn -0.4887 0.5241 -0.6975
vn -0.4734 0.5402 -0.6957
vn -0.4274 0.5826 -0.6913
vn -0.1958 0.6810 0.7057
vn -0.3200 0.6267 0.7105
vn -0.1825 0.6858 0.7046
vn -0.3201 0.6264 0.7107
vn -0.1084 0.7101 0.6957
vn -0.4234 0.5620 0.7105
vn -0.1532 0.7131 0.6841
vn -0.4370 0.5506 0.7113
vn -0.1475 0.7124 0.6861
vn -0.4714 0.5243 0.7091
vn -0.4559 0.5400 0.7075
vn -0.4103 0.5826 0.7016
vn -0.2172 0.7144 0.6652
vn -0.6445 -0.6069 0.4650
vn -0.6413 -0.7673 0.0078
vn -0.6543 -0.5639 0.5039
vn -0.6413 -0.7672 0.0078
vn -0.6833 -0.3399 0.6462
vn -0.6557 -0.6068 -0.4492
vn -0.6857 -0.3188 0.6544
vn -0.6667 -0.5641 -0.4871
vn -0.7064 -0.1877 0.6825
vn -0.6989 -0.3398 -0.6293
vn -0.7019 -0.3189 -0.6369
vn -0.7568 -0.0547 0.6514
vn -0.7229 -0.1877 -0.6650
vn -0.7514 -0.0680 0.6564
vn -0.8514 0.1782 0.4933
vn -0.7729 -0.0547 -0.6321
vn -0.8428 0.1526 0.5161
vn -0.7672 -0.0680 -0.6378
vn -0.9448 0.3274 0.0115
vn -0.8632 0.1782 -0.4723
vn -0.8552 0.1525 -0.4954
vn -0.7271 0.6865 0.0088
vn -0.7443 0.6486 -0.1592
vn -0.7461 0.6278 -0.2219
vn -0.7556 0.3720 -0.5392
vn -0.7270 0.6866 0.0088
vn -0.7524 0.3171 -0.5774
vn -0.7401 0.6485 0.1781
vn -0.6648 -0.1735 -0.7266
vn -0.7403 0.6276 0.2409
vn -0.6647 -0.1744 -0.7265
vn -0.7422 0.3721 0.5574
vn -0.5176 -0.6210 -0.5886
vn -0.7380 0.3172 0.5956
vn -0.4953 -0.6724 -0.5500
vn -0.6468 -0.1735 0.7427
vn -0.3891 -0.8822 -0.2652
vn -0.6467 -0.1744 0.7425
vn -0.3792 -0.9046 -0.1949
vn -0.5030 -0.6211 0.6010
vn -0.3526 -0.9358 0.0042
vn -0.4817 -0.6725 0.5619
vn -0.3527 -0.9357 0.0042
vn -0.3825 -0.8822 0.2745
vn -0.3740 -0.9045 0.2050
vn -0.7070 -0.7071 0.0147
vn -0.6943 -0.6918 -0.1982
vn -0.6883 -0.6906 0.2223
vn -0.6803 -0.6769 -0.2811
vn -0.6880 -0.6907 0.2225
vn -0.6732 -0.6769 0.2977
vn -0.6894 -0.6915 0.2156
vn -0.6892 -0.6918 0.2153
vn -0.7071 -0.7071 0.0027
vn -0.6732 -0.6768 0.2977
vn -0.6933 -0.6907 -0.2054
vn -0.6804 -0.6768 -0.2811
vn 0.7011 0.7130 -0.0086
vn 0.7055 0.6174 0.3478
vn 0.6967 0.6175 -0.3651
vn 0.6967 0.6174 -0.3651
vn 0.7087 0.3565 0.6088
vn 0.6935 0.3565 -0.6260
vn 0.7101 0.0004 0.7041
vn 0.6924 0.0005 -0.7215
vn 0.7099 -0.0000 0.7043
vn 0.6924 -0.0000 -0.7216
vn 0.7087 -0.3565 0.6088
vn 0.6935 -0.3565 -0.6260
vn 0.7055 -0.6174 0.3478
vn 0.6967 -0.6175 -0.3651
vn 0.6967 -0.6174 -0.3651
vn 0.7011 -0.7130 -0.0086
vn 0.7076 -0.6081 -0.3598
vn 0.7119 -0.7022 -0.0088
vn 0.7163 -0.6081 0.3423
vn 0.7044 -0.3511 -0.6168
vn 0.7194 -0.3511 0.5993
vn 0.7033 -0.0000 -0.7109
vn 0.7206 -0.0000 0.6934
vn 0.7031 0.0004 -0.7111
vn 0.7044 0.3511 -0.6168
vn 0.7194 0.3511 0.5993
vn 0.7076 0.6081 -0.3598
vn 0.7163 0.6081 0.3423
vn 0.7119 0.7022 -0.0088
vn -0.2778 0.7362 0.6171
vn -0.3504 0.6971 0.6256
vn -0.2807 0.7348 0.6175
vn -0.3498 0.6974 0.6255
vn -0.1203 0.8016 0.5857
vn -0.4514 0.6318 0.6302
vn -0.1323 0.7975 0.5887
vn -0.4518 0.6314 0.6302
vn 0.0407 0.8428 0.5367
vn 0.0378 0.8425 0.5373
vn 0.0684 0.8473 0.5266
vn -0.6151 0.4924 0.6158
vn -0.6079 0.4996 0.6172
vn -0.8169 0.2214 0.5325
vn -0.7977 0.2562 0.5459
vn -0.9240 -0.1051 0.3678
vn -0.2929 0.7362 -0.6100
vn -0.3657 0.6971 -0.6167
vn -0.3651 0.6974 -0.6167
vn -0.2959 0.7348 -0.6104
vn -0.4664 0.6319 -0.6189
vn -0.1347 0.8016 -0.5825
vn -0.4676 0.6313 -0.6186
vn -0.1468 0.7975 -0.5852
vn -0.6301 0.4924 -0.6005
vn 0.0274 0.8428 -0.5376
vn 0.0244 0.8424 -0.5383
vn 0.0554 0.8474 -0.5281
vn -0.6229 0.4996 -0.6020
vn -0.8298 0.2214 -0.5122
vn -0.8109 0.2558 -0.5263
vn -0.9327 -0.1051 -0.3449
vn 0.7145 0.6996 -0.0088
vn 0.7188 0.6058 0.3410
vn 0.7188 0.6058 0.3409
vn 0.7220 0.3498 0.5970
vn 0.7102 0.6058 -0.3586
vn 0.7231 -0.0000 0.6907
vn 0.7070 0.3498 -0.6146
vn 0.7220 -0.3498 0.5970
vn 0.7059 -0.0000 -0.7083
vn 0.7188 -0.6058 0.3410
vn 0.7070 -0.3498 -0.6146
vn 0.7145 -0.6996 -0.0088
vn 0.7102 -0.6058 -0.3586
vn 0.6998 -0.7143 -0.0086
vn 0.6995 -0.7145 -0.0088
vn 0.6954 -0.6186 -0.3658
vn 0.7042 -0.6186 0.3485
vn 0.6921 -0.3572 -0.6272
vn 0.7074 -0.3572 0.6099
vn 0.6910 0.0004 -0.7229
vn 0.7082 0.0004 0.7060
vn 0.6910 -0.0000 -0.7229
vn 0.7083 0.0003 0.7059
vn 0.6921 0.3572 -0.6272
vn 0.7074 0.3572 0.6099
vn 0.6919 0.3569 -0.6275
vn 0.6954 0.6186 -0.3658
vn 0.7042 0.6186 0.3485
vn 0.6998 0.7143 -0.0086
vn 0.7071 0.3498 -0.6146
vn 0.7059 0.0005 -0.7083
vn 0.7188 -0.6058 0.3409
vn 0.7071 -0.3498 -0.6146
vn 0.7071 -0.3504 -0.6142
vn 0.6922 -0.3572 -0.6272
vn 0.7086 -0.0000 0.7056
vn 0.6922 0.3572 -0.6272
vn 0.7074 0.3572 0.6100
vn 0.7041 0.6185 0.3489
vn -0.8972 0.2517 0.3628
vn -0.9414 0.3371 0.0116
vn -0.9059 0.2517 -0.3406
vn -0.7853 0.0184 0.6189
vn -0.8003 0.0184 -0.5994
vn -0.6355 -0.3004 0.7113
vn -0.6528 -0.3004 -0.6954
vn -0.6357 -0.3007 0.7110
vn -0.4880 -0.6191 0.6152
vn -0.5030 -0.6191 -0.6030
vn -0.3824 -0.8525 0.3564
vn -0.3910 -0.8525 -0.3469
vn -0.3469 -0.9379 0.0043
vn -0.3372 -0.9414 0.0042
vn -0.3818 -0.8551 -0.3507
vn -0.4950 -0.6194 -0.6094
vn -0.3731 -0.8551 0.3600
vn -0.6463 -0.2973 -0.7028
vn -0.4798 -0.6194 0.6214
vn -0.7953 0.0247 -0.6057
vn -0.6288 -0.2973 0.7185
vn -0.9020 0.2605 -0.3443
vn -0.7801 0.0247 0.6251
vn -0.9020 0.2605 -0.3442
vn -0.9380 0.3464 0.0115
vn -0.8933 0.2605 0.3664
vn -0.9379 0.3468 0.0116
vn 0.7102 0.6059 -0.3586
vn 0.7071 0.3503 -0.6142
vn 0.7059 0.0004 -0.7083
vn 0.6910 0.0005 -0.7229
vn 0.6952 0.6184 -0.3664
vt 0.000000 0.000000
s 1
f 1/1/1 2/1/2 3/1/2
f 4/1/3 3/1/2 2/1/2
f 2/1/2 1/1/1 5/1/1
f 3/1/2 4/1/3 6/1/3
f 7/1/4 5/1/1 1/1/1
f 8/1/5 6/1/3 4/1/3
f 5/1/1 7/1/4 9/1/4
f 6/1/3 8/1/5 10/1/6
f 11/1/7 9/1/4 7/1/4
f 8/1/5 12/1/8 10/1/6
f 9/1/4 11/1/7 13/1/7
f 8/1/5 14/1/8 12/1/8
f 15/1/9 13/1/7 11/1/7
f 16/1/10 12/1/8 14/1/8
f 13/1/7 15/1/9 17/1/9
f 16/1/10 14/1/8 18/1/11
f 15/1/9 19/1/12 17/1/9
f 20/1/13 16/1/10 18/1/11
f 15/1/9 21/1/12 19/1/12
f 20/1/13 18/1/11 22/1/13
f 23/1/14 19/1/12 21/1/12
f 22/1/13 24/1/15 20/1/13
f 23/1/14 21/1/12 24/1/15
f 24/1/15 22/1/13 23/1/14
f 25/1/16 26/1/17 27/1/17
f 26/1/17 25/1/16 28/1/16
f 29/1/18 27/1/17 26/1/17
f 30/1/19 28/1/16 25/1/16
f 27/1/17 29/1/18 31/1/18
f 32/1/20 30/1/19 25/1/16
f 31/1/18 29/1/18 33/1/21
f 32/1/20 34/1/22 30/1/19
f 29/1/18 35/1/21 33/1/21
f 34/1/22 32/1/20 36/1/22
f 37/1/23 33/1/21 35/1/21
f 38/1/24 34/1/22 36/1/22
f 33/1/21 37/1/23 39/1/23
f 34/1/22 38/1/24 40/1/25
f 41/1/26 39/1/23 37/1/23
f 42/1/27 40/1/25 38/1/24
f 41/1/26 37/1/23 43/1/26
f 44/1/28 42/1/27 38/1/24
f 45/1/29 41/1/26 43/1/26
f 46/1/30 42/1/27 44/1/28
f 45/1/29 43/1/26 47/1/29
f 42/1/27 46/1/30 48/1/30
f 45/1/29 48/1/30 46/1/30
f 48/1/30 45/1/29 47/1/29
f 49/1/31 50/1/31 51/1/32
f 52/1/33 50/1/31 49/1/31
f 50/1/31 53/1/32 51/1/32
f 50/1/31 52/1/33 54/1/33
f 53/1/32 55/1/34 51/1/32
f 56/1/35 54/1/33 52/1/33
f 57/1/34 55/1/34 53/1/32
f 54/1/33 56/1/35 58/1/35
f 59/1/36 55/1/34 57/1/34
f 56/1/35 60/1/37 58/1/35
f 55/1/34 59/1/36 61/1/36
f 60/1/37 56/1/35 62/1/38
f 61/1/36 59/1/36 63/1/39
f 64/1/40 60/1/37 62/1/38
f 59/1/36 65/1/39 63/1/39
f 60/1/37 64/1/40 66/1/41
f 65/1/39 67/1/42 63/1/39
f 68/1/43 66/1/41 64/1/40
f 69/1/42 67/1/42 65/1/39
f 66/1/41 68/1/43 70/1/43
f 69/1/42 71/1/44 67/1/42
f 71/1/44 70/1/43 68/1/43
f 71/1/44 69/1/42 72/1/44
f 70/1/43 71/1/44 72/1/44
f 73/1/45 74/1/46 75/1/46
f 76/1/47 75/1/46 74/1/46
f 74/1/46 73/1/45 77/1/45
f 74/1/46 78/1/47 76/1/47
f 79/1/48 77/1/45 73/1/45
f 78/1/47 80/1/49 76/1/47
f 77/1/45 79/1/48 81/1/50
f 80/1/49 78/1/47 82/1/49
f 83/1/51 81/1/50 79/1/48
f 82/1/49 84/1/52 80/1/49
f 81/1/50 83/1/51 85/1/51
f 84/1/52 82/1/49 86/1/52
f 87/1/53 85/1/51 83/1/51
f 88/1/54 84/1/52 86/1/52
f 83/1/51 89/1/53 87/1/53
f 84/1/52 88/1/54 90/1/54
f 91/1/55 87/1/53 89/1/53
f 92/1/56 90/1/54 88/1/54
f 87/1/53 91/1/55 93/1/55
f 88/1/54 94/1/56 92/1/56
f 95/1/57 93/1/55 91/1/55
f 94/1/56 95/1/57 92/1/56
f 93/1/55 95/1/57 96/1/57
f 95/1/57 94/1/56 96/1/57
f 97/1/1 98/1/2 99/1/2
f 100/1/58 99/1/2 98/1/2
f 98/1/2 97/1/1 101/1/1
f 100/1/58 98/1/2 102/1/58
f 103/1/59 101/1/1 97/1/1
f 104/1/60 100/1/58 102/1/58
f 103/1/59 97/1/1 105/1/4
f 100/1/58 104/1/60 106/1/60
f 105/1/4 107/1/7 103/1/59
f 108/1/61 106/1/60 104/1/60
f 107/1/7 105/1/4 109/1/7
f 106/1/60 108/1/61 110/1/61
f 111/1/9 107/1/7 109/1/7
f 112/1/10 110/1/61 108/1/61
f 107/1/7 111/1/9 113/1/9
f 110/1/61 112/1/10 114/1/10
f 111/1/9 115/1/12 113/1/9
f 116/1/13 114/1/10 112/1/10
f 111/1/9 117/1/12 115/1/12
f 114/1/10 116/1/13 118/1/13
f 119/1/14 115/1/12 117/1/12
f 116/1/13 120/1/15 118/1/13
f 119/1/14 117/1/12 120/1/15
f 120/1/15 116/1/13 119/1/14
f 121/1/16 122/1/17 123/1/17
f 122/1/17 121/1/16 124/1/16
f 125/1/62 123/1/17 122/1/17
f 126/1/20 124/1/16 121/1/16
f 123/1/17 125/1/62 127/1/62
f 128/1/20 126/1/20 121/1/16
f 127/1/62 125/1/62 129/1/21
f 128/1/20 130/1/22 126/1/20
f 125/1/62 131/1/21 129/1/21
f 130/1/22 128/1/20 132/1/22
f 133/1/63 129/1/21 131/1/21
f 134/1/25 130/1/22 132/1/22
f 129/1/21 133/1/63 135/1/63
f 130/1/22 134/1/25 136/1/25
f 137/1/26 135/1/63 133/1/63
f 138/1/28 136/1/25 134/1/25
f 137/1/26 133/1/63 139/1/26
f 140/1/28 138/1/28 134/1/25
f 141/1/29 137/1/26 139/1/26
f 142/1/30 138/1/28 140/1/28
f 141/1/29 139/1/26 143/1/29
f 138/1/28 142/1/30 144/1/30
f 141/1/29 144/1/30 142/1/30
f 144/1/30 141/1/29 143/1/29
f 145/1/1 146/1/2 147/1/2
f 148/1/58 147/1/2 146/1/2
f 146/1/2 145/1/1 149/1/1
f 147/1/2 148/1/58 150/1/58
f 151/1/4 149/1/1 145/1/1
f 152/1/64 150/1/58 148/1/58
f 149/1/1 151/1/4 153/1/59
f 150/1/58 152/1/64 154/1/64
f 151/1/4 155/1/7 153/1/59
f 152/1/64 156/1/61 154/1/64
f 155/1/7 151/1/4 157/1/65
f 152/1/64 158/1/61 156/1/61
f 159/1/66 155/1/7 157/1/65
f 160/1/10 156/1/61 158/1/61
f 155/1/7 159/1/66 161/1/67
f 156/1/61 160/1/10 162/1/10
f 163/1/12 161/1/67 159/1/66
f 164/1/13 162/1/10 160/1/10
f 161/1/67 163/1/12 165/1/12
f 164/1/13 160/1/10 166/1/13
f 167/1/14 165/1/12 163/1/12
f 166/1/13 167/1/14 164/1/13
f 165/1/12 167/1/14 168/1/15
f 167/1/14 166/1/13 168/1/15
f 169/1/16 170/1/17 171/1/17
f 170/1/17 169/1/16 172/1/16
f 173/1/18 171/1/17 170/1/17
f 174/1/20 172/1/16 169/1/16
f 171/1/17 173/1/18 175/1/18
f 176/1/20 174/1/20 169/1/16
f 175/1/18 173/1/18 177/1/21
f 176/1/20 178/1/22 174/1/20
f 173/1/18 179/1/21 177/1/21
f 178/1/22 176/1/20 180/1/22
f 181/1/23 177/1/21 179/1/21
f 182/1/25 178/1/22 180/1/22
f 177/1/21 181/1/23 183/1/23
f 178/1/22 182/1/25 184/1/25
f 185/1/68 183/1/23 181/1/23
f 186/1/28 184/1/25 182/1/25
f 185/1/68 181/1/23 187/1/26
f 188/1/28 186/1/28 182/1/25
f 189/1/29 185/1/68 187/1/26
f 190/1/30 186/1/28 188/1/28
f 189/1/29 187/1/26 191/1/29
f 186/1/28 190/1/30 192/1/30
f 189/1/29 192/1/30 190/1/30
f 192/1/30 189/1/29 191/1/29
f 193/1/69 194/1/70 195/1/71
f 194/1/70 193/1/69 196/1/72
f 195/1/71 197/1/73 193/1/69
f 196/1/72 198/1/74 194/1/70
f 197/1/73 195/1/71 199/1/75
f 198/1/74 196/1/72 200/1/76
f 199/1/75 201/1/77 197/1/73
f 201/1/77 199/1/75 202/1/78
f 201/1/77 202/1/78 203/1/79
f 204/1/80 198/1/74 200/1/76
f 198/1/74 204/1/80 205/1/81
f 206/1/82 205/1/81 204/1/80
f 205/1/81 206/1/82 207/1/83
f 207/1/83 206/1/82 208/1/84
f 209/1/85 210/1/86 211/1/87
f 211/1/87 210/1/86 212/1/88
f 210/1/86 209/1/85 213/1/89
f 212/1/88 214/1/90 211/1/87
f 215/1/91 213/1/89 209/1/85
f 214/1/90 212/1/88 216/1/92
f 214/1/90 216/1/92 217/1/93
f 217/1/93 216/1/92 218/1/94
f 215/1/91 219/1/95 213/1/89
f 215/1/91 220/1/96 219/1/95
f 220/1/96 215/1/91 221/1/97
f 221/1/97 222/1/98 220/1/96
f 222/1/98 221/1/97 223/1/99
f 222/1/98 223/1/99 224/1/100
f 225/1/101 226/1/102 227/1/103
f 228/1/104 227/1/103 226/1/102
f 226/1/102 225/1/101 229/1/101
f 228/1/104 226/1/102 230/1/104
f 231/1/105 229/1/101 225/1/101
f 232/1/106 228/1/104 230/1/104
f 225/1/101 233/1/107 231/1/105
f 232/1/106 230/1/104 234/1/106
f 235/1/108 231/1/105 233/1/107
f 236/1/109 232/1/106 234/1/106
f 231/1/105 235/1/108 237/1/108
f 232/1/106 236/1/109 238/1/109
f 239/1/110 237/1/108 235/1/108
f 240/1/111 238/1/109 236/1/109
f 237/1/108 239/1/110 241/1/112
f 238/1/109 240/1/111 242/1/111
f 239/1/110 243/1/113 241/1/112
f 244/1/114 242/1/111 240/1/111
f 239/1/110 245/1/113 243/1/113
f 244/1/114 240/1/111 246/1/115
f 247/1/116 243/1/113 245/1/113
f 247/1/116 244/1/114 246/1/115
f 247/1/116 245/1/113 248/1/116
f 244/1/114 247/1/116 248/1/116
f 249/1/117 250/1/118 251/1/118
f 252/1/119 251/1/118 250/1/118
f 249/1/117 251/1/118 253/1/117
f 251/1/118 252/1/119 254/1/119
f 255/1/120 249/1/117 253/1/117
f 252/1/119 256/1/121 254/1/119
f 249/1/117 255/1/120 257/1/120
f 256/1/121 252/1/119 258/1/121
f 259/1/122 257/1/120 255/1/120
f 258/1/121 260/1/123 256/1/121
f 257/1/120 259/1/122 261/1/122
f 258/1/121 262/1/123 260/1/123
f 259/1/122 263/1/124 261/1/122
f 264/1/125 260/1/123 262/1/123
f 259/1/122 265/1/124 263/1/124
f 260/1/123 264/1/125 266/1/125
f 267/1/126 263/1/124 265/1/124
f 268/1/127 266/1/125 264/1/125
f 267/1/126 265/1/124 269/1/126
f 266/1/125 268/1/127 270/1/127
f 271/1/128 267/1/126 269/1/126
f 271/1/128 270/1/127 268/1/127
f 271/1/128 269/1/126 272/1/128
f 270/1/127 271/1/128 272/1/128
f 273/1/129 274/1/130 275/1/131
f 274/1/130 273/1/129 276/1/129
f 277/1/132 275/1/131 274/1/130
f 273/1/129 278/1/133 276/1/129
f 275/1/131 277/1/132 279/1/134
f 273/1/129 280/1/135 278/1/133
f 281/1/136 279/1/134 277/1/132
f 280/1/135 282/1/137 278/1/133
f 277/1/132 283/1/136 281/1/136
f 280/1/135 284/1/138 282/1/137
f 285/1/139 281/1/136 283/1/136
f 286/1/140 282/1/137 284/1/138
f 281/1/136 285/1/139 287/1/141
f 282/1/137 286/1/140 288/1/140
f 289/1/142 287/1/141 285/1/139
f 286/1/140 290/1/143 288/1/140
f 287/1/141 289/1/142 291/1/144
f 290/1/143 286/1/140 292/1/145
f 289/1/142 293/1/146 291/1/144
f 292/1/145 294/1/147 290/1/143
f 289/1/142 295/1/146 293/1/146
f 294/1/147 293/1/146 295/1/146
f 292/1/145 296/1/148 294/1/147
f 293/1/146 294/1/147 296/1/148
f 297/1/149 298/1/149 299/1/150
f 298/1/149 297/1/149 300/1/151
f 300/1/151 301/1/152 298/1/149
f 300/1/151 302/1/153 301/1/152
f 302/1/153 300/1/151 303/1/153
f 304/1/154 302/1/153 303/1/153
f 305/1/155 306/1/154 307/1/155
f 308/1/156 305/1/155 307/1/155
f 309/1/157 308/1/156 307/1/155
f 310/1/158 308/1/156 309/1/157
f 308/1/156 310/1/158 311/1/158
f 312/1/159 311/1/158 310/1/158
f 313/1/160 314/1/161 315/1/162
f 314/1/161 313/1/160 316/1/163
f 315/1/162 317/1/164 313/1/160
f 318/1/165 314/1/161 316/1/163
f 315/1/162 319/1/166 317/1/164
f 314/1/161 318/1/165 320/1/167
f 321/1/168 317/1/164 319/1/166
f 322/1/169 320/1/167 318/1/165
f 319/1/166 323/1/170 321/1/168
f 320/1/167 322/1/169 324/1/171
f 325/1/172 321/1/168 323/1/170
f 326/1/173 324/1/171 322/1/169
f 321/1/168 325/1/172 327/1/174
f 324/1/171 326/1/173 328/1/175
f 329/1/176 327/1/174 325/1/172
f 326/1/173 330/1/177 328/1/175
f 327/1/174 329/1/176 331/1/178
f 330/1/177 326/1/173 332/1/179
f 333/1/180 331/1/178 329/1/176
f 332/1/179 334/1/181 330/1/177
f 331/1/178 333/1/180 335/1/180
f 332/1/179 336/1/182 334/1/181
f 333/1/180 334/1/181 336/1/182
f 336/1/182 335/1/180 333/1/180
f 337/1/183 338/1/184 339/1/185
f 340/1/186 337/1/183 339/1/185
f 338/1/184 337/1/183 341/1/187
f 337/1/183 340/1/186 342/1/188
f 341/1/187 343/1/189 338/1/184
f 340/1/186 344/1/190 342/1/188
f 344/1/190 340/1/186 345/1/191
f 344/1/190 345/1/191 346/1/192
f 343/1/189 341/1/187 347/1/193
f 347/1/193 348/1/194 343/1/189
f 343/1/189 348/1/194 349/1/195
f 349/1/195 348/1/194 350/1/196
f 350/1/196 351/1/197 349/1/195
f 350/1/196 352/1/198 351/1/197
f 353/1/199 354/1/200 355/1/201
f 354/1/200 353/1/199 356/1/202
f 355/1/201 354/1/200 357/1/203
f 353/1/199 358/1/204 356/1/202
f 357/1/203 359/1/205 355/1/201
f 358/1/204 353/1/199 360/1/206
f 357/1/203 361/1/207 359/1/205
f 358/1/204 360/1/206 362/1/208
f 363/1/209 358/1/204 362/1/208
f 363/1/209 362/1/208 364/1/210
f 361/1/207 357/1/203 365/1/211
f 365/1/211 366/1/212 361/1/207
f 366/1/212 365/1/211 367/1/213
f 366/1/212 367/1/213 368/1/214
f 369/1/215 370/1/216 371/1/216
f 369/1/215 371/1/216 372/1/215
f 370/1/216 373/1/217 371/1/216
f 372/1/215 374/1/218 369/1/215
f 373/1/217 370/1/216 375/1/217
f 374/1/218 372/1/215 376/1/218
f 377/1/219 373/1/217 375/1/217
f 376/1/218 378/1/220 374/1/218
f 378/1/220 376/1/218 379/1/221
f 378/1/220 379/1/221 380/1/222
f 373/1/217 377/1/219 381/1/219
f 382/1/223 381/1/219 377/1/219
f 381/1/219 382/1/223 383/1/224
f 383/1/224 382/1/223 384/1/225
f 385/1/226 386/1/227 387/1/228
f 387/1/228 386/1/227 388/1/229
f 386/1/227 385/1/226 389/1/226
f 390/1/230 387/1/228 388/1/229
f 391/1/231 389/1/226 385/1/226
f 390/1/230 388/1/229 392/1/232
f 390/1/230 392/1/232 393/1/232
f 393/1/232 392/1/232 394/1/233
f 389/1/226 391/1/231 395/1/231
f 391/1/231 396/1/234 395/1/231
f 396/1/234 391/1/231 397/1/234
f 397/1/234 398/1/235 396/1/234
f 398/1/235 397/1/234 399/1/235
f 398/1/235 399/1/235 400/1/236
f 401/1/237 402/1/238 403/1/239
f 402/1/238 401/1/237 404/1/237
f 405/1/240 403/1/239 402/1/238
f 406/1/241 404/1/237 401/1/237
f 403/1/239 405/1/240 407/1/242
f 408/1/243 406/1/241 401/1/237
f 409/1/244 407/1/242 405/1/240
f 408/1/243 410/1/245 406/1/241
f 409/1/244 405/1/240 411/1/246
f 410/1/245 408/1/243 412/1/247
f 413/1/248 409/1/244 411/1/246
f 414/1/249 410/1/245 412/1/247
f 409/1/244 413/1/248 415/1/250
f 410/1/245 414/1/249 416/1/251
f 417/1/252 415/1/250 413/1/248
f 414/1/249 418/1/253 416/1/251
f 417/1/252 413/1/248 419/1/254
f 418/1/253 414/1/249 420/1/255
f 421/1/256 417/1/252 419/1/254
f 422/1/257 418/1/253 420/1/255
f 421/1/256 419/1/254 423/1/256
f 418/1/253 422/1/257 424/1/258
f 421/1/256 424/1/258 422/1/257
f 424/1/258 421/1/256 423/1/256
f 425/1/259 426/1/260 427/1/261
f 428/1/262 427/1/261 426/1/260
f 427/1/261 429/1/263 425/1/259
f 427/1/261 428/1/262 430/1/264
f 431/1/265 425/1/259 429/1/263
f 432/1/266 430/1/264 428/1/262
f 431/1/265 429/1/263 433/1/267
f 430/1/264 432/1/266 434/1/268
f 435/1/269 431/1/265 433/1/267
f 436/1/270 434/1/268 432/1/266
f 433/1/267 437/1/271 435/1/269
f 434/1/268 436/1/270 438/1/270
f 439/1/272 435/1/269 437/1/271
f 440/1/273 438/1/270 436/1/270
f 435/1/269 439/1/272 441/1/274
f 436/1/270 442/1/275 440/1/273
f 443/1/276 441/1/274 439/1/272
f 444/1/277 440/1/273 442/1/275
f 441/1/274 443/1/276 445/1/278
f 444/1/277 442/1/275 446/1/279
f 447/1/280 445/1/278 443/1/276
f 446/1/279 447/1/280 444/1/277
f 445/1/278 447/1/280 448/1/280
f 447/1/280 446/1/279 448/1/280
f 449/1/281 450/1/282 451/1/283
f 452/1/284 450/1/282 449/1/281
f 450/1/282 453/1/283 451/1/283
f 450/1/282 452/1/284 454/1/284
f 455/1/285 451/1/283 453/1/283
f 452/1/284 456/1/286 454/1/284
f 451/1/283 455/1/285 457/1/285
f 456/1/286 452/1/284 458/1/286
f 459/1/287 457/1/285 455/1/285
f 458/1/286 460/1/288 456/1/286
f 457/1/285 459/1/287 461/1/289
f 460/1/288 458/1/286 462/1/288
f 459/1/287 463/1/290 461/1/289
f 464/1/291 460/1/288 462/1/288
f 463/1/290 459/1/287 465/1/290
f 460/1/288 464/1/291 466/1/291
f 465/1/290 467/1/292 463/1/290
f 468/1/293 466/1/291 464/1/291
f 465/1/290 469/1/294 467/1/292
f 466/1/291 468/1/293 470/1/293
f 471/1/295 467/1/292 469/1/294
f 468/1/293 471/1/295 470/1/293
f 467/1/292 471/1/295 472/1/296
f 471/1/295 468/1/293 472/1/296
f 473/1/297 474/1/298 475/1/298
f 476/1/299 475/1/298 474/1/298
f 474/1/298 473/1/297 477/1/297
f 475/1/298 476/1/299 478/1/299
f 479/1/300 477/1/297 473/1/297
f 480/1/301 478/1/299 476/1/299
f 477/1/297 479/1/300 481/1/302
f 478/1/299 480/1/301 482/1/301
f 479/1/300 483/1/303 481/1/302
f 484/1/304 482/1/301 480/1/301
f 483/1/303 479/1/300 485/1/305
f 482/1/301 484/1/304 486/1/306
f 487/1/307 483/1/303 485/1/305
f 488/1/308 486/1/306 484/1/304
f 483/1/303 487/1/307 489/1/307
f 488/1/308 484/1/304 490/1/308
f 491/1/309 489/1/307 487/1/307
f 492/1/310 488/1/308 490/1/308
f 489/1/307 491/1/309 493/1/309
f 490/1/308 494/1/311 492/1/310
f 495/1/312 493/1/309 491/1/309
f 494/1/311 495/1/312 492/1/310
f 493/1/309 495/1/312 496/1/313
f 495/1/312 494/1/311 496/1/313
f 497/1/314 498/1/314 499/1/315
f 497/1/314 500/1/316 498/1/314
f 500/1/316 497/1/314 501/1/316
f 502/1/317 500/1/316 501/1/316
f 503/1/317 500/1/316 502/1/317
f 504/1/318 503/1/317 502/1/317
f 505/1/319 506/1/318 507/1/320
f 508/1/321 505/1/319 507/1/320
f 505/1/319 508/1/321 509/1/321
f 508/1/321 510/1/322 509/1/321
f 510/1/322 508/1/321 511/1/322
f 512/1/323 510/1/322 511/1/322
f 513/1/324 514/1/325 515/1/325
f 516/1/326 515/1/325 514/1/325
f 514/1/325 513/1/324 517/1/324
f 513/1/324 518/1/327 517/1/324
f 518/1/327 513/1/324 519/1/327
f 518/1/327 519/1/327 520/1/328
f 521/1/329 522/1/330 523/1/331
f 521/1/329 524/1/332 522/1/330
f 524/1/332 521/1/329 525/1/333
f 526/1/334 524/1/332 525/1/333
f 527/1/335 524/1/332 526/1/334
f 528/1/336 527/1/335 526/1/334
f 529/1/337 530/1/338 531/1/338
f 532/1/328 531/1/338 530/1/338
f 529/1/337 531/1/338 533/1/337
f 534/1/339 529/1/337 533/1/337
f 529/1/337 534/1/339 535/1/339
f 534/1/339 536/1/326 535/1/339
f 537/1/340 538/1/336 539/1/341
f 540/1/342 537/1/340 539/1/341
f 537/1/340 540/1/342 541/1/343
f 540/1/342 542/1/344 541/1/343
f 542/1/344 540/1/342 543/1/344
f 544/1/331 542/1/344 543/1/344
f 545/1/345 546/1/346 547/1/347
f 545/1/345 547/1/347 548/1/348
f 546/1/346 549/1/349 547/1/347
f 548/1/348 550/1/350 545/1/345
f 549/1/349 546/1/346 551/1/351
f 550/1/350 548/1/348 552/1/352
f 553/1/353 549/1/349 551/1/351
f 550/1/350 552/1/352 554/1/354
f 550/1/350 554/1/354 555/1/355
f 555/1/355 554/1/354 556/1/356
f 549/1/349 553/1/353 557/1/357
f 558/1/358 557/1/357 553/1/353
f 557/1/357 558/1/358 559/1/359
f 559/1/359 558/1/358 560/1/360
f 561/1/361 562/1/362 563/1/363
f 562/1/362 561/1/361 564/1/364
f 563/1/363 562/1/362 565/1/365
f 566/1/366 564/1/364 561/1/361
f 567/1/367 563/1/363 565/1/365
f 564/1/364 566/1/366 568/1/368
f 565/1/365 569/1/369 567/1/367
f 569/1/369 565/1/365 570/1/370
f 569/1/369 570/1/370 571/1/371
f 566/1/366 572/1/372 568/1/368
f 572/1/372 566/1/366 573/1/373
f 573/1/373 574/1/374 572/1/372
f 574/1/374 573/1/373 575/1/375
f 574/1/374 575/1/375 576/1/376
f 577/1/377 578/1/378 579/1/379
f 577/1/377 579/1/379 580/1/380
f 578/1/378 581/1/381 579/1/379
f 580/1/380 582/1/382 577/1/377
f 581/1/381 578/1/378 583/1/383
f 582/1/382 580/1/380 584/1/384
f 585/1/385 581/1/381 583/1/383
f 584/1/384 586/1/386 582/1/382
f 586/1/386 584/1/384 587/1/387
f 586/1/386 587/1/387 588/1/388
f 581/1/381 585/1/385 589/1/389
f 585/1/385 590/1/390 589/1/389
f 590/1/390 585/1/385 591/1/391
f 590/1/390 591/1/391 592/1/392
f 593/1/393 594/1/394 595/1/395
f 595/1/395 594/1/394 596/1/396
f 594/1/394 593/1/393 597/1/397
f 598/1/398 595/1/395 596/1/396
f 599/1/399 597/1/397 593/1/393
f 596/1/396 600/1/400 598/1/398
f 601/1/401 598/1/398 600/1/400
f 601/1/401 600/1/400 602/1/402
f 597/1/397 599/1/399 603/1/403
f 599/1/399 604/1/404 603/1/403
f 604/1/404 599/1/399 605/1/405
f 606/1/406 604/1/404 605/1/405
f 604/1/404 606/1/406 607/1/407
f 607/1/407 606/1/406 608/1/408
f 609/1/409 610/1/409 611/1/410
f 609/1/409 612/1/411 610/1/409
f 612/1/411 609/1/409 613/1/411
f 612/1/411 613/1/411 614/1/412
f 612/1/411 614/1/412 615/1/413
f 616/1/414 615/1/413 614/1/412
f 617/1/415 618/1/415 619/1/416
f 617/1/415 620/1/417 618/1/415
f 617/1/415 619/1/416 621/1/416
f 622/1/418 621/1/416 619/1/416
f 620/1/417 617/1/415 623/1/419
f 620/1/417 623/1/419 624/1/420
f 625/1/421 626/1/414 627/1/421
f 628/1/422 625/1/421 627/1/421
f 625/1/421 628/1/422 629/1/422
f 630/1/423 629/1/422 628/1/422
f 629/1/422 630/1/423 631/1/423
f 632/1/410 631/1/423 630/1/423
f 633/1/424 634/1/424 635/1/425
f 636/1/420 634/1/424 633/1/424
f 634/1/424 637/1/425 635/1/425
f 637/1/425 638/1/426 635/1/425
f 638/1/426 637/1/425 639/1/426
f 639/1/426 640/1/418 638/1/426
f 641/1/427 642/1/428 643/1/429
f 641/1/427 644/1/430 642/1/428
f 641/1/427 643/1/429 645/1/429
f 646/1/431 645/1/429 643/1/429
f 644/1/430 641/1/427 647/1/430
f 644/1/430 647/1/430 648/1/432
f 649/1/433 650/1/433 651/1/434
f 652/1/435 650/1/433 649/1/433
f 650/1/433 653/1/436 651/1/434
f 654/1/437 651/1/434 653/1/436
f 651/1/434 654/1/437 655/1/437
f 654/1/437 656/1/438 655/1/437
f 657/1/439 658/1/440 659/1/441
f 657/1/439 659/1/441 660/1/439
f 658/1/440 661/1/442 659/1/441
f 662/1/443 657/1/439 660/1/439
f 661/1/442 658/1/440 663/1/444
f 657/1/439 662/1/443 664/1/445
f 665/1/446 661/1/442 663/1/444
f 666/1/447 664/1/445 662/1/443
f 661/1/442 665/1/446 667/1/446
f 664/1/445 666/1/447 668/1/448
f 669/1/449 667/1/446 665/1/446
f 666/1/447 670/1/450 668/1/448
f 667/1/446 669/1/449 671/1/451
f 670/1/450 666/1/447 672/1/452
f 673/1/453 671/1/451 669/1/449
f 674/1/454 670/1/450 672/1/452
f 671/1/451 673/1/453 675/1/455
f 674/1/454 672/1/452 676/1/456
f 677/1/457 675/1/455 673/1/453
f 678/1/458 674/1/454 676/1/456
f 675/1/455 677/1/457 679/1/459
f 676/1/456 680/1/460 678/1/458
f 680/1/460 677/1/457 678/1/458
f 677/1/457 680/1/460 679/1/459
f 681/1/461 682/1/462 683/1/463
f 684/1/464 683/1/463 682/1/462
f 682/1/462 681/1/461 685/1/465
f 682/1/462 686/1/466 684/1/464
f 687/1/467 685/1/465 681/1/461
f 688/1/468 684/1/464 686/1/466
f 685/1/465 687/1/467 689/1/469
f 686/1/466 690/1/470 688/1/468
f 691/1/471 689/1/469 687/1/467
f 688/1/468 690/1/470 692/1/472
f 689/1/469 691/1/471 693/1/471
f 692/1/472 690/1/470 694/1/472
f 695/1/473 693/1/471 691/1/471
f 696/1/474 692/1/472 694/1/472
f 691/1/471 697/1/475 695/1/473
f 692/1/472 696/1/474 698/1/476
f 697/1/475 699/1/477 695/1/473
f 700/1/478 698/1/476 696/1/474
f 697/1/475 701/1/479 699/1/477
f 698/1/476 700/1/478 702/1/480
f 701/1/479 703/1/481 699/1/477
f 703/1/481 702/1/480 700/1/478
f 703/1/481 701/1/479 704/1/481
f 702/1/480 703/1/481 704/1/481
f 705/1/482 706/1/483 707/1/483
f 708/1/484 707/1/483 706/1/483
f 706/1/483 705/1/482 709/1/485
f 708/1/484 706/1/483 710/1/484
f 711/1/486 709/1/485 705/1/482
f 712/1/487 708/1/484 710/1/484
f 713/1/488 711/1/486 705/1/482
f 712/1/487 710/1/484 714/1/487
f 715/1/489 711/1/486 713/1/488
f 716/1/490 712/1/487 714/1/487
f 711/1/486 715/1/489 717/1/489
f 712/1/487 716/1/490 718/1/490
f 719/1/491 717/1/489 715/1/489
f 720/1/492 718/1/490 716/1/490
f 717/1/489 719/1/491 721/1/491
f 718/1/490 720/1/492 722/1/492
f 719/1/491 723/1/493 721/1/491
f 724/1/494 722/1/492 720/1/492
f 719/1/491 725/1/495 723/1/493
f 724/1/494 720/1/492 726/1/496
f 727/1/497 723/1/493 725/1/495
f 727/1/497 724/1/494 726/1/496
f 727/1/497 725/1/495 728/1/498
f 724/1/494 727/1/497 728/1/498
f 729/1/499 730/1/500 731/1/500
f 732/1/501 731/1/500 730/1/500
f 729/1/499 731/1/500 733/1/502
f 732/1/501 730/1/500 734/1/501
f 735/1/503 729/1/499 733/1/502
f 734/1/501 736/1/504 732/1/501
f 735/1/503 733/1/502 737/1/505
f 736/1/504 734/1/501 738/1/504
f 739/1/506 735/1/503 737/1/505
f 738/1/504 740/1/507 736/1/504
f 735/1/503 739/1/506 741/1/506
f 738/1/504 742/1/507 740/1/507
f 739/1/506 743/1/508 741/1/506
f 744/1/509 740/1/507 742/1/507
f 739/1/506 745/1/510 743/1/508
f 740/1/507 744/1/509 746/1/509
f 747/1/511 743/1/508 745/1/510
f 748/1/512 746/1/509 744/1/509
f 747/1/511 745/1/510 749/1/511
f 746/1/509 748/1/512 750/1/512
f 751/1/513 747/1/511 749/1/511
f 751/1/513 750/1/512 748/1/512
f 751/1/513 749/1/511 752/1/513
f 750/1/512 751/1/513 752/1/513
f 753/1/514 754/1/514 755/1/515
f 755/1/515 754/1/514 756/1/515
f 753/1/514 757/1/516 754/1/514
f 756/1/515 758/1/517 755/1/515
f 757/1/516 753/1/514 759/1/518
f 758/1/517 756/1/515 760/1/517
f 761/1/519 757/1/516 759/1/518
f 760/1/517 762/1/520 758/1/517
f 762/1/520 760/1/517 763/1/520
f 762/1/520 763/1/520 764/1/521
f 757/1/516 761/1/519 765/1/519
f 765/1/519 761/1/519 766/1/522
f 765/1/519 766/1/522 767/1/522
f 767/1/522 766/1/522 768/1/523
f 769/1/524 770/1/525 771/1/525
f 772/1/526 771/1/525 770/1/525
f 770/1/525 769/1/524 773/1/524
f 771/1/525 772/1/526 774/1/526
f 775/1/527 773/1/524 769/1/524
f 772/1/526 776/1/528 774/1/526
f 774/1/526 776/1/528 777/1/528
f 777/1/528 776/1/528 778/1/529
f 773/1/524 775/1/527 779/1/530
f 775/1/527 780/1/531 779/1/530
f 780/1/531 775/1/527 781/1/531
f 781/1/531 782/1/532 780/1/531
f 782/1/532 781/1/531 783/1/532
f 782/1/532 783/1/532 784/1/533
f 785/1/534 786/1/534 787/1/534
f 788/1/535 787/1/534 786/1/534
f 788/1/535 789/1/536 787/1/534
f 788/1/535 790/1/537 789/1/536
f 788/1/535 791/1/538 790/1/537
f 790/1/537 791/1/538 792/1/539
f 793/1/540 792/1/539 791/1/538
f 793/1/540 794/1/541 792/1/539
f 793/1/540 795/1/542 794/1/541
f 795/1/542 793/1/540 796/1/543
f 796/1/543 797/1/544 795/1/542
f 797/1/544 796/1/543 798/1/545
f 797/1/544 798/1/545 799/1/546
f 800/1/547 801/1/548 802/1/549
f 801/1/548 800/1/547 803/1/550
f 800/1/547 802/1/549 804/1/551
f 803/1/550 805/1/552 801/1/548
f 806/1/553 804/1/551 802/1/549
f 801/1/548 805/1/552 807/1/554
f 804/1/551 806/1/553 808/1/555
f 809/1/556 807/1/554 805/1/552
f 807/1/554 809/1/556 810/1/557
f 810/1/557 809/1/556 811/1/558
f 806/1/553 812/1/559 808/1/555
f 812/1/559 806/1/553 813/1/559
f 812/1/559 813/1/559 814/1/559
f 815/1/560 816/1/561 817/1/562
f 816/1/561 815/1/560 818/1/563
f 819/1/564 815/1/560 817/1/562
f 820/1/565 816/1/561 818/1/563
f 817/1/562 821/1/566 819/1/564
f 816/1/561 820/1/565 822/1/567
f 821/1/566 823/1/568 819/1/564
f 824/1/569 822/1/567 820/1/565
f 821/1/566 825/1/568 823/1/568
f 822/1/567 824/1/569 826/1/570
f 825/1/568 827/1/571 823/1/568
f 828/1/572 826/1/570 824/1/569
f 827/1/571 825/1/568 829/1/573
f 826/1/570 828/1/572 830/1/572
f 829/1/573 831/1/574 827/1/571
f 832/1/575 830/1/572 828/1/572
f 831/1/574 829/1/573 833/1/576
f 830/1/572 832/1/575 834/1/577
f 835/1/578 831/1/574 833/1/576
f 836/1/579 834/1/577 832/1/575
f 831/1/574 835/1/578 837/1/578
f 835/1/578 836/1/579 837/1/578
f 834/1/577 836/1/579 838/1/580
f 835/1/578 838/1/580 836/1/579
f 839/1/581 840/1/582 841/1/583
f 842/1/584 841/1/583 840/1/582
f 840/1/582 839/1/581 843/1/585
f 841/1/583 842/1/584 844/1/586
f 839/1/581 845/1/587 843/1/585
f 846/1/588 844/1/586 842/1/584
f 845/1/587 839/1/581 847/1/589
f 844/1/586 846/1/588 848/1/590
f 849/1/591 845/1/587 847/1/589
f 850/1/592 848/1/590 846/1/588
f 849/1/591 847/1/589 851/1/593
f 846/1/588 852/1/594 850/1/592
f 853/1/595 849/1/591 851/1/593
f 854/1/596 850/1/592 852/1/594
f 853/1/595 851/1/593 855/1/597
f 852/1/594 856/1/598 854/1/596
f 857/1/599 853/1/595 855/1/597
f 858/1/600 854/1/596 856/1/598
f 853/1/595 857/1/599 859/1/601
f 856/1/598 860/1/602 858/1/600
f 861/1/603 859/1/601 857/1/599
f 862/1/604 858/1/600 860/1/602
f 859/1/601 861/1/603 862/1/604
f 858/1/600 862/1/604 861/1/603
f 863/1/605 864/1/605 865/1/606
f 863/1/605 866/1/607 864/1/605
f 863/1/605 865/1/606 867/1/606
f 868/1/608 867/1/606 865/1/606
f 866/1/607 863/1/605 869/1/609
f 866/1/607 869/1/609 870/1/610
f 871/1/611 872/1/612 873/1/613
f 874/1/614 872/1/612 871/1/611
f 872/1/612 875/1/613 873/1/613
f 876/1/615 873/1/613 875/1/613
f 873/1/613 876/1/615 877/1/615
f 876/1/615 878/1/616 877/1/615
f 879/1/617 880/1/617 881/1/618
f 882/1/619 880/1/617 879/1/617
f 880/1/617 883/1/618 881/1/618
f 880/1/617 882/1/619 884/1/620
f 885/1/621 881/1/618 883/1/618
f 882/1/619 886/1/622 884/1/620
f 881/1/618 885/1/621 887/1/621
f 886/1/622 882/1/619 888/1/622
f 889/1/623 887/1/621 885/1/621
f 888/1/622 890/1/624 886/1/622
f 887/1/621 889/1/623 891/1/625
f 890/1/624 888/1/622 892/1/626
f 889/1/623 893/1/627 891/1/625
f 894/1/628 890/1/624 892/1/626
f 893/1/627 889/1/623 895/1/627
f 890/1/624 894/1/628 896/1/628
f 895/1/627 897/1/629 893/1/627
f 898/1/630 896/1/628 894/1/628
f 895/1/627 899/1/629 897/1/629
f 896/1/628 898/1/630 900/1/631
f 901/1/632 897/1/629 899/1/629
f 898/1/630 901/1/632 900/1/631
f 897/1/629 901/1/632 902/1/632
f 901/1/632 898/1/630 902/1/632
f 903/1/633 904/1/634 905/1/634
f 906/1/635 905/1/634 904/1/634
f 904/1/634 903/1/633 907/1/633
f 904/1/634 908/1/635 906/1/635
f 903/1/633 909/1/636 907/1/633
f 910/1/637 906/1/635 908/1/635
f 909/1/636 903/1/633 911/1/636
f 906/1/635 910/1/637 912/1/637
f 911/1/636 913/1/638 909/1/636
f 914/1/639 912/1/637 910/1/637
f 913/1/638 911/1/636 915/1/640
f 912/1/637 914/1/639 916/1/639
f 917/1/641 913/1/638 915/1/640
f 918/1/642 916/1/639 914/1/639
f 913/1/638 917/1/641 919/1/641
f 918/1/642 914/1/639 920/1/642
f 921/1/643 919/1/641 917/1/641
f 922/1/644 918/1/642 920/1/642
f 919/1/641 921/1/643 923/1/643
f 920/1/642 924/1/644 922/1/644
f 925/1/645 923/1/643 921/1/643
f 924/1/644 925/1/645 922/1/644
f 923/1/643 925/1/645 926/1/645
f 925/1/645 924/1/644 926/1/645
f 927/1/646 928/1/647 929/1/648
f 928/1/647 927/1/646 930/1/649
f 929/1/648 931/1/650 927/1/646
f 930/1/649 932/1/651 928/1/647
f 931/1/650 929/1/648 933/1/652
f 932/1/651 930/1/649 934/1/653
f 933/1/652 935/1/654 931/1/650
f 935/1/654 933/1/652 936/1/655
f 935/1/654 936/1/655 937/1/656
f 932/1/651 934/1/653 938/1/657
f 938/1/657 939/1/658 932/1/651
f 939/1/658 938/1/657 940/1/659
f 939/1/658 940/1/659 941/1/660
f 941/1/660 940/1/659 942/1/661
f 943/1/662 944/1/663 945/1/664
f 944/1/663 943/1/662 946/1/665
f 945/1/664 944/1/663 947/1/666
f 948/1/667 946/1/665 943/1/662
f 947/1/666 949/1/668 945/1/664
f 946/1/665 948/1/667 950/1/669
f 947/1/666 951/1/670 949/1/668
f 952/1/671 950/1/669 948/1/667
f 950/1/669 952/1/671 953/1/672
f 953/1/672 952/1/671 954/1/673
f 951/1/670 947/1/666 955/1/674
f 955/1/674 956/1/675 951/1/670
f 956/1/675 955/1/674 957/1/676
f 956/1/675 957/1/676 958/1/677
f 959/1/678 960/1/679 961/1/680
f 960/1/679 962/1/681 961/1/680
f 959/1/678 961/1/680 963/1/678
f 962/1/681 960/1/679 964/1/681
f 965/1/682 959/1/678 963/1/678
f 964/1/681 966/1/683 962/1/681
f 963/1/678 967/1/682 965/1/682
f 966/1/683 964/1/681 968/1/683
f 969/1/684 965/1/682 967/1/682
f 970/1/685 966/1/683 968/1/683
f 965/1/682 969/1/684 971/1/684
f 966/1/683 970/1/685 972/1/685
f 969/1/684 973/1/686 971/1/684
f 970/1/685 974/1/687 972/1/685
f 973/1/686 969/1/684 975/1/686
f 970/1/685 976/1/687 974/1/687
f 977/1/688 973/1/686 975/1/686
f 978/1/689 974/1/687 976/1/687
f 977/1/688 975/1/686 979/1/688
f 974/1/687 978/1/689 980/1/689
f 981/1/690 977/1/688 979/1/688
f 981/1/690 980/1/689 978/1/689
f 979/1/688 982/1/690 981/1/690
f 980/1/689 981/1/690 982/1/690
f 983/1/691 984/1/692 985/1/693
f 986/1/694 984/1/692 983/1/691
f 984/1/692 987/1/693 985/1/693
f 984/1/692 986/1/694 988/1/694
f 987/1/693 989/1/695 985/1/693
f 990/1/696 988/1/694 986/1/694
f 989/1/695 987/1/693 991/1/695
f 988/1/694 990/1/696 992/1/696
f 993/1/697 989/1/695 991/1/695
f 994/1/698 992/1/696 990/1/696
f 989/1/695 993/1/697 995/1/699
f 996/1/700 994/1/698 990/1/696
f 995/1/699 993/1/697 997/1/701
f 998/1/702 994/1/698 996/1/700
f 993/1/697 999/1/703 997/1/701
f 994/1/698 998/1/702 1000/1/702
f 1001/1/704 997/1/701 999/1/703
f 1002/1/705 1000/1/702 998/1/702
f 997/1/701 1001/1/704 1003/1/704
f 998/1/702 1004/1/705 1002/1/705
f 1005/1/706 1003/1/704 1001/1/704
f 1004/1/705 1005/1/706 1002/1/705
f 1003/1/704 1005/1/706 1006/1/706
f 1005/1/706 1004/1/705 1006/1/706
f 1007/1/678 1008/1/679 1009/1/679
f 1010/1/681 1009/1/679 1008/1/679
f 1007/1/678 1009/1/679 1011/1/678
f 1009/1/679 1010/1/681 1012/1/681
f 1013/1/682 1007/1/678 1011/1/678
f 1010/1/681 1014/1/683 1012/1/681
f 1007/1/678 1013/1/682 1015/1/682
f 1014/1/683 1010/1/681 1016/1/683
f 1017/1/707 1015/1/682 1013/1/682
f 1018/1/685 1014/1/683 1016/1/683
f 1015/1/682 1017/1/707 1019/1/707
f 1016/1/683 1020/1/685 1018/1/685
f 1017/1/707 1021/1/686 1019/1/707
f 1020/1/685 1022/1/687 1018/1/685
f 1021/1/686 1017/1/707 1023/1/708
f 1020/1/685 1024/1/709 1022/1/687
f 1025/1/710 1021/1/686 1023/1/708
f 1024/1/709 1026/1/689 1022/1/687
f 1021/1/686 1025/1/710 1027/1/711
f 1026/1/689 1024/1/709 1028/1/689
f 1029/1/690 1027/1/711 1025/1/710
f 1030/1/690 1026/1/689 1028/1/689
f 1027/1/711 1029/1/690 1030/1/690
f 1026/1/689 1030/1/690 1029/1/690
f 1031/1/691 1032/1/691 1033/1/693
f 1034/1/694 1032/1/691 1031/1/691
f 1032/1/691 1035/1/693 1033/1/693
f 1032/1/691 1034/1/694 1036/1/694
f 1035/1/693 1037/1/712 1033/1/693
f 1038/1/696 1036/1/694 1034/1/694
f 1037/1/712 1035/1/693 1039/1/712
f 1036/1/694 1038/1/696 1040/1/696
f 1041/1/699 1037/1/712 1039/1/712
f 1042/1/700 1040/1/696 1038/1/696
f 1037/1/712 1041/1/699 1043/1/699
f 1044/1/713 1042/1/700 1038/1/696
f 1043/1/699 1041/1/699 1045/1/701
f 1046/1/702 1042/1/700 1044/1/713
f 1041/1/699 1047/1/714 1045/1/701
f 1042/1/700 1046/1/702 1048/1/715
f 1049/1/704 1045/1/701 1047/1/714
f 1050/1/716 1048/1/715 1046/1/702
f 1045/1/701 1049/1/704 1051/1/704
f 1046/1/702 1052/1/705 1050/1/716
f 1053/1/706 1051/1/704 1049/1/704
f 1052/1/705 1053/1/706 1050/1/716
f 1051/1/704 1053/1/706 1054/1/706
f 1053/1/706 1052/1/705 1054/1/706
f 1055/1/717 1056/1/718 1057/1/718
f 1058/1/719 1057/1/718 1056/1/718
f 1055/1/717 1057/1/718 1059/1/717
f 1057/1/718 1058/1/719 1060/1/719
f 1061/1/720 1055/1/717 1059/1/717
f 1062/1/721 1060/1/719 1058/1/719
f 1061/1/720 1059/1/717 1063/1/720
f 1060/1/719 1062/1/721 1064/1/721
f 1063/1/720 1065/1/722 1061/1/720
f 1066/1/723 1064/1/721 1062/1/721
f 1065/1/722 1063/1/720 1067/1/724
f 1064/1/721 1066/1/723 1068/1/723
f 1069/1/725 1065/1/722 1067/1/724
f 1066/1/723 1070/1/726 1068/1/723
f 1065/1/722 1069/1/725 1071/1/725
f 1070/1/726 1066/1/723 1072/1/726
f 1073/1/727 1071/1/725 1069/1/725
f 1074/1/728 1070/1/726 1072/1/726
f 1073/1/727 1069/1/725 1075/1/727
f 1070/1/726 1074/1/728 1076/1/728
f 1075/1/727 1077/1/729 1073/1/727
f 1077/1/729 1076/1/728 1074/1/728
f 1077/1/729 1075/1/727 1078/1/729
f 1076/1/728 1077/1/729 1078/1/729
f 1079/1/730 1080/1/731 1081/1/731
f 1080/1/731 1079/1/730 1082/1/730
f 1083/1/732 1081/1/731 1080/1/731
f 1084/1/733 1082/1/730 1079/1/730
f 1081/1/731 1083/1/732 1085/1/732
f 1086/1/733 1084/1/733 1079/1/730
f 1087/1/734 1085/1/732 1083/1/732
f 1084/1/733 1086/1/733 1088/1/735
f 1087/1/734 1083/1/732 1089/1/734
f 1088/1/735 1086/1/733 1090/1/735
f 1091/1/736 1087/1/734 1089/1/734
f 1092/1/737 1088/1/735 1090/1/735
f 1087/1/734 1091/1/736 1093/1/736
f 1088/1/735 1092/1/737 1094/1/737
f 1095/1/738 1093/1/736 1091/1/736
f 1096/1/739 1094/1/737 1092/1/737
f 1093/1/736 1095/1/738 1097/1/740
f 1092/1/737 1098/1/739 1096/1/739
f 1099/1/741 1097/1/740 1095/1/738
f 1100/1/742 1096/1/739 1098/1/739
f 1097/1/740 1099/1/741 1101/1/743
f 1100/1/742 1098/1/739 1102/1/742
f 1099/1/741 1102/1/742 1101/1/743
f 1102/1/742 1099/1/741 1100/1/742
f 1103/1/678 1104/1/679 1105/1/679
f 1104/1/679 1106/1/681 1105/1/679
f 1103/1/678 1105/1/679 1107/1/678
f 1106/1/681 1104/1/679 1108/1/681
f 1109/1/744 1103/1/678 1107/1/678
f 1108/1/681 1110/1/683 1106/1/681
f 1107/1/678 1111/1/682 1109/1/744
f 1110/1/683 1108/1/681 1112/1/683
f 1111/1/682 1113/1/684 1109/1/744
f 1114/1/685 1110/1/683 1112/1/683
f 1113/1/684 1111/1/682 1115/1/745
f 1110/1/683 1114/1/685 1116/1/685
f 1115/1/745 1117/1/686 1113/1/684
f 1118/1/709 1116/1/685 1114/1/685
f 1117/1/686 1115/1/745 1119/1/746
f 1116/1/685 1118/1/709 1120/1/687
f 1121/1/688 1117/1/686 1119/1/746
f 1122/1/689 1120/1/687 1118/1/709
f 1117/1/686 1121/1/688 1123/1/688
f 1120/1/687 1122/1/689 1124/1/689
f 1125/1/690 1123/1/688 1121/1/688
f 1126/1/690 1124/1/689 1122/1/689
f 1123/1/688 1125/1/690 1126/1/690
f 1124/1/689 1126/1/690 1125/1/690
f 1127/1/691 1128/1/691 1129/1/693
f 1130/1/694 1128/1/691 1127/1/691
f 1128/1/691 1131/1/693 1129/1/693
f 1128/1/691 1130/1/694 1132/1/694
f 1131/1/693 1133/1/695 1129/1/693
f 1134/1/696 1132/1/694 1130/1/694
f 1133/1/695 1131/1/693 1135/1/695
f 1132/1/694 1134/1/696 1136/1/696
f 1137/1/747 1133/1/695 1135/1/695
f 1138/1/713 1136/1/696 1134/1/696
f 1133/1/695 1137/1/747 1139/1/699
f 1140/1/700 1138/1/713 1134/1/696
f 1139/1/699 1137/1/747 1141/1/701
f 1142/1/702 1138/1/713 1140/1/700
f 1137/1/747 1143/1/701 1141/1/701
f 1138/1/713 1142/1/702 1144/1/702
f 1145/1/704 1141/1/701 1143/1/701
f 1146/1/705 1144/1/702 1142/1/702
f 1141/1/701 1145/1/704 1147/1/748
f 1142/1/702 1148/1/705 1146/1/705
f 1149/1/706 1147/1/748 1145/1/704
f 1148/1/705 1149/1/706 1146/1/705
f 1147/1/748 1149/1/706 1150/1/706
f 1149/1/706 1148/1/705 1150/1/706
