# Blender 5.1.2
# www.blender.org
mtllib eventhorizonblackthing.mtl
o eventhorizonblackthing
v 0.782808 -0.450283 0.060589
v 0.823904 -0.328370 0.117096
v 0.782597 -0.420926 0.170140
v 0.824012 -0.343566 0.060389
v 0.836191 -0.229822 0.060320
v 0.408314 -0.619804 0.281429
v 0.291539 -0.454723 0.429412
v 0.294583 -0.609626 0.274483
v 0.185179 -0.435407 0.391986
v 0.187909 -0.574288 0.253079
v 0.093331 -0.402803 0.332092
v 0.095559 -0.516199 0.218676
v 0.405162 -0.459436 0.441824
v 0.518303 -0.449227 0.428373
v 0.521348 -0.604129 0.273444
v 0.623255 -0.424788 0.389979
v 0.625985 -0.563670 0.251072
v 0.712864 -0.387786 0.329254
v 0.715093 -0.501182 0.215838
v 0.782597 -0.420926 0.170140
v 0.781022 -0.340743 0.250337
v 0.823088 -0.286864 0.158610
v 0.823904 -0.328370 0.117096
v 0.836191 -0.229822 0.060320
v 0.518303 -0.449227 0.428373
v 0.400122 -0.240391 0.500533
v 0.291539 -0.454723 0.429412
v 0.513434 -0.237645 0.485081
v 0.623255 -0.424788 0.389979
v 0.618890 -0.235088 0.440821
v 0.712864 -0.387786 0.329254
v 0.709300 -0.232897 0.370765
v 0.781022 -0.340743 0.250337
v 0.778501 -0.231220 0.279691
v 0.823088 -0.286864 0.158610
v 0.821784 -0.230171 0.173805
v 0.836191 -0.229822 0.060320
v 0.286670 -0.243141 0.486120
v 0.185179 -0.435407 0.391986
v 0.180814 -0.245707 0.442828
v 0.093331 -0.402803 0.332092
v 0.089767 -0.247913 0.373603
v 0.274880 0.123251 -0.148790
v 0.387497 0.197643 0.062328
v 0.387916 0.138927 -0.156774
v 0.501645 0.128747 -0.149829
v 0.274476 0.179966 0.062847
v 0.501239 0.185462 0.061808
v 0.170244 0.082791 -0.126418
v 0.608320 0.093409 -0.128425
v 0.169881 0.133642 0.063331
v 0.081136 0.020303 -0.091183
v 0.080840 0.061822 0.063747
v 0.607957 0.144260 0.061324
v 0.700670 0.035319 -0.094021
v 0.700373 0.076838 0.060908
v 0.772189 -0.012203 0.060589
v 0.772399 -0.041562 -0.048962
v 0.818624 -0.131996 0.003680
v 0.818516 -0.116800 0.060389
v 0.836191 -0.229822 0.060320
v 0.503583 0.128794 0.273444
v 0.387497 0.197643 0.062328
v 0.389922 0.138975 0.281429
v 0.276819 0.123298 0.274483
v 0.501239 0.185462 0.061808
v 0.274476 0.179966 0.062847
v 0.610058 0.093451 0.251072
v 0.171981 0.082833 0.253079
v 0.607957 0.144260 0.061324
v 0.169881 0.133642 0.063331
v 0.082555 0.020337 0.218676
v 0.080840 0.061822 0.063747
v 0.702089 0.035354 0.215838
v 0.700373 0.076838 0.060908
v 0.772189 -0.012203 0.060589
v 0.773402 -0.041538 0.170140
v 0.818516 -0.116800 0.060389
v 0.819144 -0.131984 0.117096
v 0.836191 -0.229822 0.060320
v 0.182170 -0.435480 -0.265322
v 0.094141 -0.516233 -0.091183
v 0.090874 -0.402862 -0.204599
v 0.186171 -0.574330 -0.126418
v 0.288182 -0.454804 -0.303719
v 0.292645 -0.609673 -0.148790
v 0.406307 -0.619853 -0.156774
v 0.401686 -0.459521 -0.317170
v 0.514946 -0.449308 -0.304758
v 0.519409 -0.604176 -0.149829
v 0.624248 -0.563712 -0.128425
v 0.620246 -0.424861 -0.267329
v 0.713675 -0.501217 -0.094021
v 0.710407 -0.387846 -0.207437
v 0.779284 -0.340785 -0.129160
v 0.781595 -0.420951 -0.048963
v 0.823384 -0.328383 0.003680
v 0.822188 -0.286886 -0.037832
v 0.836191 -0.229822 0.060320
v 0.408733 -0.678520 0.062327
v 0.292645 -0.609673 -0.148790
v 0.519409 -0.604176 -0.149829
v 0.294989 -0.666340 0.062847
v 0.186171 -0.574330 -0.126418
v 0.188272 -0.625137 0.063331
v 0.094141 -0.516233 -0.091183
v 0.095856 -0.557718 0.063747
v 0.521752 -0.660843 0.061808
v 0.624248 -0.563712 -0.128425
v 0.626348 -0.614519 0.061324
v 0.713675 -0.501217 -0.094021
v 0.715389 -0.542702 0.060908
v 0.781595 -0.420951 -0.048963
v 0.782808 -0.450283 0.060589
v 0.823384 -0.328383 0.003680
v 0.824012 -0.343566 0.060389
v 0.836191 -0.229822 0.060320
v 0.281283 -0.031570 0.429412
v 0.286670 -0.243141 0.486120
v 0.175983 -0.056018 0.391984
v 0.180814 -0.245707 0.442828
v 0.085823 -0.093033 0.332092
v 0.089767 -0.247913 0.373603
v 0.394543 -0.021357 0.441825
v 0.508046 -0.026074 0.428373
v 0.513434 -0.237645 0.485081
v 0.614060 -0.045400 0.389977
v 0.618890 -0.235088 0.440821
v 0.705356 -0.078016 0.329254
v 0.709300 -0.232897 0.370765
v 0.775713 -0.121703 0.250337
v 0.778501 -0.231220 0.279691
v 0.821784 -0.230171 0.173805
v 0.820340 -0.173480 0.158610
v 0.836191 -0.229822 0.060320
v 0.281283 -0.031570 0.429412
v 0.508046 -0.026074 0.428373
v 0.276819 0.123298 0.274483
v 0.175983 -0.056018 0.391984
v 0.171981 0.082833 0.253079
v 0.085823 -0.093033 0.332092
v 0.082555 0.020337 0.218676
v 0.503583 0.128794 0.273444
v 0.614060 -0.045400 0.389977
v 0.610058 0.093451 0.251072
v 0.705356 -0.078016 0.329254
v 0.702089 0.035354 0.215838
v 0.773402 -0.041538 0.170140
v 0.775713 -0.121703 0.250337
v 0.820340 -0.173480 0.158610
v 0.819144 -0.131984 0.117096
v 0.836191 -0.229822 0.060320
v 0.620246 -0.424861 -0.267329
v 0.615415 -0.235173 -0.318173
v 0.710407 -0.387846 -0.207437
v 0.706463 -0.232966 -0.248948
v 0.509558 -0.237739 -0.361464
v 0.779284 -0.340785 -0.129160
v 0.514946 -0.449308 -0.304758
v 0.776495 -0.231268 -0.158512
v 0.820744 -0.230196 -0.053027
v 0.822188 -0.286886 -0.037832
v 0.836191 -0.229822 0.060320
v 0.396109 -0.240488 -0.375878
v 0.288182 -0.454804 -0.303719
v 0.282794 -0.243235 -0.360426
v 0.182170 -0.435480 -0.265322
v 0.177339 -0.245791 -0.316166
v 0.090874 -0.402862 -0.204599
v 0.086929 -0.247982 -0.246110
v 0.282794 -0.243235 -0.360426
v 0.277926 -0.031652 -0.303719
v 0.172974 -0.056091 -0.265321
v 0.177339 -0.245791 -0.316166
v 0.083365 -0.093092 -0.204599
v 0.086929 -0.247982 -0.246110
v 0.391067 -0.021441 -0.317169
v 0.504689 -0.026155 -0.304758
v 0.509558 -0.237739 -0.361464
v 0.611050 -0.045473 -0.267329
v 0.615415 -0.235173 -0.318173
v 0.702898 -0.078076 -0.207437
v 0.706463 -0.232966 -0.248948
v 0.773975 -0.121745 -0.129160
v 0.776495 -0.231268 -0.158512
v 0.820744 -0.230196 -0.053027
v 0.819440 -0.173502 -0.037832
v 0.836191 -0.229822 0.060320
v 0.504689 -0.026155 -0.304758
v 0.277926 -0.031652 -0.303719
v 0.501645 0.128747 -0.149829
v 0.611050 -0.045473 -0.267329
v 0.608320 0.093409 -0.128425
v 0.702898 -0.078076 -0.207437
v 0.700670 0.035319 -0.094021
v 0.772399 -0.041562 -0.048962
v 0.773975 -0.121745 -0.129160
v 0.819440 -0.173502 -0.037832
v 0.818624 -0.131996 0.003680
v 0.836191 -0.229822 0.060320
v 0.274880 0.123251 -0.148790
v 0.172974 -0.056091 -0.265321
v 0.170244 0.082791 -0.126418
v 0.083365 -0.093092 -0.204599
v 0.081136 0.020303 -0.091183
v 0.294583 -0.609626 0.274483
v 0.294989 -0.666340 0.062847
v 0.187909 -0.574288 0.253079
v 0.188272 -0.625137 0.063331
v 0.095559 -0.516199 0.218676
v 0.095856 -0.557718 0.063747
v 0.521348 -0.604129 0.273444
v 0.521752 -0.660843 0.061808
v 0.625985 -0.563670 0.251072
v 0.626348 -0.614519 0.061324
v 0.715093 -0.501182 0.215838
v 0.715389 -0.542702 0.060908
v -3.381283 -0.332045 0.084745
v -3.389259 -0.333785 0.082358
v -3.381224 -0.334596 0.084061
v -3.389295 -0.332240 0.082771
v -3.389237 -0.334917 0.081226
v -3.381188 -0.336462 0.082194
v -2.678945 -0.320545 0.085988
v -2.678865 -0.324586 0.081947
v -1.866008 -0.305063 0.089576
v -3.389384 -0.329148 0.079680
v -3.389323 -0.332240 0.076587
v -1.865868 -0.312194 0.082444
v -0.937750 -0.296212 0.108956
v -3.389251 -0.334917 0.078133
v -0.937413 -0.313327 0.091837
v -0.349745 -0.339601 0.112535
v -0.349656 -0.352136 0.065764
v -0.937369 -0.319595 0.068451
v -1.865850 -0.314805 0.072702
v -0.937628 -0.313333 0.045065
v -0.350174 -0.339612 0.018991
v -1.865957 -0.312196 0.062959
v -2.678854 -0.326065 0.076426
v -2.678915 -0.324587 0.070904
v -1.866163 -0.305067 0.055827
v -0.938121 -0.296221 0.027946
v -0.351160 -0.305387 -0.015247
v -3.381183 -0.337147 0.079643
v -3.389234 -0.335332 0.079680
v -3.381211 -0.336463 0.077092
v -3.389283 -0.333786 0.077001
v -3.381265 -0.334597 0.075224
v -2.679032 -0.320547 0.066863
v -3.381330 -0.332047 0.074541
v -2.679173 -0.315028 0.065383
v -1.866411 -0.295328 0.053217
v -0.938716 -0.272842 0.021680
v -1.866635 -0.285587 0.055827
v -2.679300 -0.309508 0.066863
v -3.381389 -0.329496 0.075224
v -3.389358 -0.330694 0.077001
v -3.381425 -0.327629 0.077092
v -3.389380 -0.329562 0.078133
v -3.381430 -0.326946 0.079643
v -2.679389 -0.303987 0.076426
v -2.679379 -0.305467 0.070904
v -1.866794 -0.275846 0.072702
v -1.866775 -0.278457 0.062959
v -0.939636 -0.226079 0.068451
v -0.939591 -0.232345 0.045065
v -0.354189 -0.165102 0.065764
v -0.939254 -0.249462 0.027946
v -0.354100 -0.177636 0.018991
v -0.030554 -0.061256 0.064270
v -0.353427 -0.211870 -0.015247
v -0.352351 -0.258630 -0.027780
v -0.026829 -0.250740 -0.125247
v -0.029009 -0.156006 -0.099855
v 0.086929 -0.247982 -0.246110
v 0.083365 -0.093092 -0.204599
v -0.030372 -0.086649 -0.030489
v 0.081136 0.020303 -0.091183
v 0.080840 0.061822 0.063747
v 0.090874 -0.402862 -0.204599
v -0.024417 -0.345468 -0.099855
v 0.094141 -0.516233 -0.091183
v -0.022418 -0.414809 -0.030488
v 0.095856 -0.557718 0.063747
v -0.021369 -0.440181 0.064270
v 0.095559 -0.516199 0.218676
v -0.021551 -0.414786 0.159028
v 0.093331 -0.402803 0.332092
v -0.022913 -0.345431 0.228396
v -0.025094 -0.250697 0.253786
v 0.089767 -0.247913 0.373603
v -0.350418 -0.305369 0.146775
v -0.027506 -0.155969 0.228396
v 0.085823 -0.093033 0.332092
v -0.351494 -0.258609 0.159307
v -0.352685 -0.211852 0.146774
v -0.029505 -0.086628 0.159028
v 0.082555 0.020337 0.218676
v 0.080840 0.061822 0.063747
v -0.030554 -0.061256 0.064270
v -0.353671 -0.177626 0.112535
v -0.354189 -0.165102 0.065764
v -0.939376 -0.232340 0.091837
v -0.939636 -0.226079 0.068451
v -0.938883 -0.249453 0.108956
v -1.866686 -0.278454 0.082444
v -1.866794 -0.275846 0.072702
v -0.938287 -0.272832 0.115223
v -1.866480 -0.285584 0.089576
v -2.679329 -0.305466 0.081947
v -2.679389 -0.303987 0.076426
v -3.381402 -0.327628 0.082194
v -3.381430 -0.326946 0.079643
v -2.679213 -0.309506 0.085988
v -1.866232 -0.295323 0.092186
v -3.389367 -0.329562 0.081226
v -3.389384 -0.329148 0.079680
v -3.381348 -0.329495 0.084061
v -2.679072 -0.315025 0.087468
v -3.389334 -0.330693 0.082358
vn 0.8686 -0.4955 -0.0044
vn 0.9664 -0.2186 0.1349
vn 0.8682 -0.4261 0.2544
vn 0.9668 -0.2556 -0.0048
vn 0.9997 0.0247 -0.0051
vn 0.0228 -0.8658 0.4999
vn -0.2378 -0.4901 0.8386
vn -0.2308 -0.8434 0.4852
vn -0.4768 -0.4470 0.7569
vn -0.4705 -0.7663 0.4375
vn -0.6506 -0.3907 0.6512
vn -0.6453 -0.6640 0.3777
vn 0.0156 -0.4997 0.8660
vn 0.2689 -0.4777 0.8364
vn 0.2759 -0.8310 0.4830
vn 0.5048 -0.4232 0.7524
vn 0.5110 -0.7425 0.4330
vn 0.7074 -0.3420 0.6186
vn 0.7126 -0.6047 0.3558
vn 0.8682 -0.4260 0.2545
vn 0.8644 -0.2376 0.4431
vn 0.9644 -0.1160 0.2375
vn 0.9665 -0.2185 0.1349
vn 0.2689 -0.4774 0.8365
vn 0.0041 0.0006 1.0000
vn 0.0156 -0.4994 0.8662
vn -0.2378 -0.4897 0.8388
vn 0.2577 0.0064 0.9662
vn 0.5048 -0.4230 0.7525
vn 0.4948 0.0125 0.8689
vn 0.7074 -0.3419 0.6186
vn 0.6993 0.0174 0.7146
vn 0.8644 -0.2375 0.4431
vn 0.8585 0.0211 0.5124
vn 0.9644 -0.1159 0.2375
vn 0.9613 0.0237 0.2746
vn -0.2489 -0.0060 0.9685
vn -0.4767 -0.4469 0.7570
vn -0.4869 -0.0113 0.8734
vn -0.6506 -0.3904 0.6514
vn -0.6592 -0.0155 0.7518
vn -0.2759 0.8312 -0.4827
vn -0.0247 0.9997 -0.0005
vn -0.0238 0.8659 -0.4996
vn 0.2308 0.8435 -0.4850
vn -0.2767 0.9610 0.0002
vn 0.2299 0.9732 -0.0017
vn -0.5110 0.7427 -0.4328
vn 0.4705 0.7664 -0.4374
vn -0.5120 0.8590 0.0013
vn -0.6801 0.6320 -0.3715
vn -0.6807 0.7325 0.0022
vn 0.4698 0.8828 -0.0028
vn 0.6791 0.6385 -0.3621
vn 0.6787 0.7344 -0.0037
vn 0.8436 0.5370 -0.0044
vn 0.8441 0.4676 -0.2623
vn 0.9535 0.2651 -0.1437
vn 0.9532 0.3022 -0.0049
vn 0.9997 0.0248 -0.0051
vn 0.2353 0.8436 0.4827
vn -0.0192 0.8661 0.4996
vn -0.2715 0.8313 0.4850
vn 0.2299 0.9732 -0.0012
vn -0.2768 0.9609 0.0007
vn 0.4745 0.7664 0.4329
vn -0.5070 0.7427 0.4374
vn 0.4698 0.8828 -0.0027
vn -0.5120 0.8590 0.0018
vn -0.6767 0.6321 0.3775
vn -0.6807 0.7325 0.0028
vn 0.6824 0.6385 0.3558
vn 0.8465 0.4676 0.2545
vn 0.9547 0.2651 0.1348
vn -0.4837 -0.4472 -0.7524
vn -0.6487 -0.6641 -0.3717
vn -0.6565 -0.3909 -0.6452
vn -0.4745 -0.7663 -0.4331
vn -0.2455 -0.4901 -0.8364
vn -0.2353 -0.8435 -0.4828
vn 0.0182 -0.8659 -0.4999
vn 0.0076 -0.4998 -0.8661
vn 0.2613 -0.4779 -0.8386
vn 0.2714 -0.8312 -0.4853
vn 0.5070 -0.7426 -0.4377
vn 0.4979 -0.4234 -0.7568
vn 0.7092 -0.6047 -0.3624
vn 0.7017 -0.3421 -0.6250
vn 0.8603 -0.2377 -0.4509
vn 0.8658 -0.4261 -0.2624
vn 0.9652 -0.2186 -0.1437
vn 0.9622 -0.1160 -0.2463
vn 0.0237 -0.9997 -0.0005
vn -0.2353 -0.8436 -0.4827
vn 0.0182 -0.8660 -0.4997
vn 0.2714 -0.8313 -0.4851
vn -0.2299 -0.9732 0.0002
vn -0.4744 -0.7665 -0.4329
vn -0.4698 -0.8828 0.0017
vn -0.6487 -0.6642 -0.3715
vn -0.6444 -0.7647 0.0022
vn 0.2768 -0.9609 -0.0017
vn 0.5071 -0.7427 -0.4373
vn 0.5120 -0.8590 -0.0028
vn 0.7093 -0.6048 -0.3622
vn 0.7135 -0.7007 -0.0037
vn 0.8658 -0.4262 -0.2622
vn 0.9668 -0.2556 -0.0049
vn 0.9997 0.0244 -0.0051
vn -0.2613 0.4776 0.8388
vn -0.2489 -0.0055 0.9685
vn -0.4979 0.4232 0.7570
vn -0.6688 0.3586 0.6513
vn -0.6592 -0.0153 0.7518
vn -0.0086 0.4995 0.8663
vn 0.2455 0.4899 0.8365
vn 0.2578 0.0068 0.9662
vn 0.4837 0.4470 0.7525
vn 0.4949 0.0125 0.8689
vn 0.6900 0.3758 0.6186
vn 0.6994 0.0175 0.7146
vn 0.8519 0.2791 0.4431
vn 0.8585 0.0213 0.5124
vn 0.9613 0.0238 0.2746
vn 0.9577 0.1624 0.2375
vn 0.9997 0.0247 -0.0050
vn -0.0086 0.4999 0.8661
vn -0.0192 0.8658 0.5000
vn -0.2613 0.4780 0.8386
vn 0.2455 0.4901 0.8364
vn -0.2715 0.8312 0.4852
vn -0.4978 0.4236 0.7568
vn -0.5071 0.7426 0.4375
vn -0.6766 0.6320 0.3779
vn 0.2353 0.8434 0.4830
vn 0.4837 0.4472 0.7523
vn 0.4745 0.7664 0.4330
vn 0.8519 0.2792 0.4430
vn 0.9577 0.1625 0.2375
vn 0.9547 0.2651 0.1349
vn 0.9997 0.0248 -0.0050
vn 0.4978 -0.4232 -0.7570
vn 0.4869 0.0123 -0.8734
vn 0.6928 0.0173 -0.7210
vn 0.2489 0.0062 -0.9685
vn 0.8604 -0.2376 -0.4509
vn 0.2612 -0.4777 -0.8388
vn 0.8537 0.0212 -0.5203
vn 0.9587 0.0237 -0.2834
vn 0.9622 -0.1159 -0.2463
vn 0.9997 0.0247 -0.0054
vn -0.0051 0.0002 -1.0000
vn 0.0076 -0.4996 -0.8662
vn -0.2455 -0.4899 -0.8365
vn -0.2577 -0.0062 -0.9662
vn -0.4837 -0.4470 -0.7525
vn -0.4949 -0.0115 -0.8689
vn -0.6565 -0.3907 -0.6453
vn -0.6661 -0.0157 -0.7457
vn -0.2578 -0.0057 -0.9662
vn -0.2689 0.4774 -0.8365
vn -0.0051 0.0005 -1.0000
vn -0.5048 0.4231 -0.7525
vn -0.4949 -0.0113 -0.8689
vn -0.6748 0.3583 -0.6452
vn -0.6660 -0.0156 -0.7458
vn -0.0166 0.4993 -0.8663
vn 0.2378 0.4898 -0.8388
vn 0.2489 0.0068 -0.9685
vn 0.4768 0.4467 -0.7570
vn 0.4868 0.0123 -0.8734
vn 0.6843 0.3757 -0.6250
vn 0.8478 0.2790 -0.4509
vn 0.9587 0.0238 -0.2834
vn 0.9555 0.1624 -0.2463
vn -0.0238 0.8657 -0.4999
vn 0.2378 0.4900 -0.8386
vn -0.0166 0.4996 -0.8661
vn -0.2690 0.4777 -0.8363
vn 0.2310 0.8433 -0.4853
vn 0.4767 0.4473 -0.7568
vn 0.4705 0.7663 -0.4375
vn 0.6843 0.3758 -0.6249
vn 0.6791 0.6384 -0.3623
vn 0.8441 0.4676 -0.2624
vn 0.8478 0.2792 -0.4509
vn 0.9555 0.1625 -0.2463
vn -0.2759 0.8310 -0.4830
vn -0.5048 0.4232 -0.7524
vn -0.5110 0.7425 -0.4330
vn -0.6747 0.3585 -0.6452
vn -0.6801 0.6319 -0.3717
vn -0.2309 -0.8434 0.4851
vn -0.2299 -0.9732 0.0007
vn -0.4705 -0.7664 0.4374
vn -0.4698 -0.8828 0.0018
vn -0.6452 -0.6641 0.3777
vn -0.6444 -0.7646 0.0026
vn 0.0228 -0.8660 0.4996
vn 0.2759 -0.8312 0.4826
vn 0.2768 -0.9609 -0.0012
vn 0.5110 -0.7426 0.4330
vn 0.5120 -0.8590 -0.0027
vn -0.1199 -0.0029 0.9928
vn -0.7305 -0.3529 0.5847
vn -0.1084 -0.4990 0.8598
vn -0.7382 -0.0180 0.6743
vn -0.7255 -0.5989 0.3391
vn -0.1013 -0.8619 0.4968
vn 0.0067 -0.5000 0.8660
vn 0.0139 -0.8659 0.5000
vn -0.0038 -0.5001 0.8660
vn -0.7576 0.6527 0.0029
vn -0.7442 -0.0180 -0.6678
vn 0.0034 -0.8660 0.5000
vn -0.0386 -0.5004 0.8650
vn -0.7286 -0.5989 -0.3323
vn -0.0311 -0.8657 0.4996
vn -0.1621 -0.8553 0.4922
vn -0.1611 -0.9869 0.0009
vn -0.0302 -0.9995 -0.0000
vn 0.0043 -1.0000 0.0001
vn -0.0356 -0.8658 -0.4991
vn -0.1666 -0.8554 -0.4905
vn -0.0012 -0.8661 -0.4998
vn 0.0148 -0.9999 -0.0000
vn 0.0093 -0.8660 -0.4999
vn -0.0119 -0.5000 -0.8659
vn -0.0465 -0.5005 -0.8645
vn -0.1769 -0.4958 -0.8502
vn -0.1004 -0.9949 0.0006
vn -0.7248 -0.6889 0.0031
vn -0.1059 -0.8621 -0.4955
vn -0.7354 -0.3536 -0.5780
vn -0.1164 -0.4991 -0.8587
vn -0.0013 -0.5002 -0.8659
vn -0.1290 -0.0028 -0.9916
vn -0.0140 -0.0004 -0.9999
vn -0.0245 -0.0006 -0.9997
vn -0.0592 -0.0014 -0.9982
vn -0.0360 0.4992 -0.8658
vn -0.0255 0.4995 -0.8659
vn -0.1404 0.4928 -0.8587
vn -0.7518 0.3175 -0.5779
vn -0.1475 0.8561 -0.4954
vn -0.7566 0.5632 -0.3321
vn -0.1486 0.9889 -0.0002
vn -0.0335 0.9994 -0.0009
vn -0.0327 0.8654 -0.5000
vn -0.0442 0.9990 -0.0004
vn -0.0432 0.8651 -0.4998
vn -0.0784 0.9969 -0.0003
vn -0.0779 0.8631 -0.4990
vn -0.2090 0.9779 0.0003
vn -0.0704 0.4978 -0.8644
vn -0.2078 0.8463 -0.4905
vn -0.5619 0.8272 0.0020
vn -0.2007 0.4866 -0.8502
vn -0.1894 -0.0046 -0.9819
vn -0.5453 -0.0127 -0.8381
vn -0.5549 0.4070 -0.7256
vn -0.6661 -0.0156 -0.7457
vn -0.6748 0.3584 -0.6452
vn -0.5609 0.7147 -0.4179
vn -0.6801 0.6319 -0.3716
vn -0.6808 0.7325 0.0024
vn -0.6566 -0.3907 -0.6452
vn -0.5345 -0.4334 -0.7256
vn -0.6488 -0.6641 -0.3716
vn -0.5256 -0.7410 -0.4179
vn -0.6445 -0.7646 0.0026
vn -0.5210 -0.8536 0.0025
vn -0.5218 -0.7409 0.4228
vn -0.6506 -0.3906 0.6513
vn -0.5278 -0.4333 0.7305
vn -0.5375 -0.0130 0.8432
vn -0.1691 -0.4956 0.8519
vn -0.5482 0.4072 0.7305
vn -0.6688 0.3586 0.6512
vn -0.1804 -0.0044 0.9836
vn -0.1930 0.4868 0.8519
vn -0.5571 0.7148 0.4228
vn -0.6767 0.6320 0.3777
vn -0.6808 0.7325 0.0028
vn -0.2034 0.8466 0.4918
vn -0.2090 0.9779 0.0004
vn -0.0733 0.8632 0.4995
vn -0.0784 0.9969 -0.0001
vn -0.0628 0.4979 0.8650
vn -0.0386 0.8652 0.5000
vn -0.0442 0.9990 -0.0003
vn -0.0497 -0.0007 0.9988
vn -0.0282 0.4991 0.8661
vn -0.0281 0.8655 0.5001
vn -0.0335 0.9994 -0.0004
vn -0.1430 0.8561 0.4966
vn -0.1486 0.9889 0.0001
vn -0.0176 0.4997 0.8660
vn -0.0153 -0.0004 0.9999
vn -0.7539 0.5629 0.3388
vn -0.7575 0.6529 0.0027
vn -0.1325 0.4930 0.8599
vn -0.0048 -0.0001 1.0000
vn -0.7464 0.3180 0.5847
vt 0.500000 0.833333
vt 0.416667 0.916667
vt 0.416667 0.833333
vt 0.500000 0.916667
vt 0.458333 1.000000
vt 0.416667 0.500000
vt 0.333333 0.416667
vt 0.416667 0.416667
vt 0.333333 0.333333
vt 0.416667 0.333333
vt 0.333333 0.250000
vt 0.416667 0.250000
vt 0.333333 0.500000
vt 0.333333 0.583333
vt 0.416667 0.583333
vt 0.333333 0.666667
vt 0.416667 0.666667
vt 0.333333 0.750000
vt 0.416667 0.750000
vt 0.333333 0.833333
vt 0.333333 0.916667
vt 0.375000 1.000000
vt 0.250000 0.500000
vt 0.250000 0.583333
vt 0.250000 0.666667
vt 0.250000 0.750000
vt 0.250000 0.833333
vt 0.250000 0.916667
vt 0.291667 1.000000
vt 0.250000 0.416667
vt 0.250000 0.333333
vt 0.250000 0.250000
vt 0.916667 0.416667
vt 1.000000 0.500000
vt 0.916667 0.500000
vt 0.916667 0.583333
vt 1.000000 0.416667
vt 1.000000 0.583333
vt 0.916667 0.333333
vt 0.916667 0.666667
vt 1.000000 0.333333
vt 0.916667 0.250000
vt 1.000000 0.250000
vt 1.000000 0.666667
vt 0.916667 0.750000
vt 1.000000 0.750000
vt 1.000000 0.833333
vt 0.916667 0.833333
vt 0.916667 0.916667
vt 1.000000 0.916667
vt 0.958333 1.000000
vt 0.083333 0.583333
vt 0.000000 0.500000
vt 0.083333 0.500000
vt 0.083333 0.416667
vt 0.000000 0.583333
vt 0.000000 0.416667
vt 0.083333 0.666667
vt 0.083333 0.333333
vt 0.000000 0.666667
vt 0.000000 0.333333
vt 0.083333 0.250000
vt 0.000000 0.250000
vt 0.083333 0.750000
vt 0.000000 0.750000
vt 0.000000 0.833333
vt 0.083333 0.833333
vt 0.000000 0.916667
vt 0.083333 0.916667
vt 0.041667 1.000000
vt 0.666667 0.333333
vt 0.583333 0.250000
vt 0.666667 0.250000
vt 0.583333 0.333333
vt 0.666667 0.416667
vt 0.583333 0.416667
vt 0.583333 0.500000
vt 0.666667 0.500000
vt 0.666667 0.583333
vt 0.583333 0.583333
vt 0.583333 0.666667
vt 0.666667 0.666667
vt 0.583333 0.750000
vt 0.666667 0.750000
vt 0.666667 0.833333
vt 0.583333 0.833333
vt 0.583333 0.916667
vt 0.666667 0.916667
vt 0.625000 1.000000
vt 0.500000 0.500000
vt 0.500000 0.416667
vt 0.500000 0.333333
vt 0.500000 0.250000
vt 0.500000 0.583333
vt 0.500000 0.666667
vt 0.500000 0.750000
vt 0.541667 1.000000
vt 0.166667 0.416667
vt 0.166667 0.333333
vt 0.166667 0.250000
vt 0.166667 0.500000
vt 0.166667 0.583333
vt 0.166667 0.666667
vt 0.166667 0.750000
vt 0.166667 0.833333
vt 0.166667 0.916667
vt 0.208333 1.000000
vt 0.125000 1.000000
vt 0.750000 0.666667
vt 0.750000 0.750000
vt 0.750000 0.583333
vt 0.750000 0.833333
vt 0.750000 0.916667
vt 0.708333 1.000000
vt 0.750000 0.500000
vt 0.750000 0.416667
vt 0.750000 0.333333
vt 0.750000 0.250000
vt 0.833333 0.416667
vt 0.833333 0.333333
vt 0.833333 0.250000
vt 0.833333 0.500000
vt 0.833333 0.583333
vt 0.833333 0.666667
vt 0.833333 0.750000
vt 0.833333 0.833333
vt 0.833333 0.916667
vt 0.791667 1.000000
vt 0.875000 1.000000
s 1
f 1/1/1 2/2/2 3/3/3
f 2/2/2 1/1/1 4/4/4
f 4/4/4 5/5/5 2/2/2
f 6/6/6 7/7/7 8/8/8
f 9/9/9 8/8/8 7/7/7
f 8/8/8 9/9/9 10/10/10
f 11/11/11 10/10/10 9/9/9
f 10/10/10 11/11/11 12/12/12
f 7/7/7 6/6/6 13/13/13
f 14/14/14 13/13/13 6/6/6
f 14/14/14 6/6/6 15/15/15
f 16/16/16 14/14/14 15/15/15
f 16/16/16 15/15/15 17/17/17
f 17/17/17 18/18/18 16/16/16
f 18/18/18 17/17/17 19/19/19
f 20/3/20 18/18/18 19/19/19
f 18/18/18 20/3/20 21/20/21
f 20/3/20 22/21/22 21/20/21
f 22/21/22 20/3/20 23/2/23
f 23/2/23 24/22/5 22/21/22
f 25/14/24 26/23/25 13/13/26
f 26/23/25 27/7/27 13/13/26
f 26/23/25 25/14/24 28/24/28
f 29/16/29 28/24/28 25/14/24
f 28/24/28 29/16/29 30/25/30
f 31/18/31 30/25/30 29/16/29
f 30/25/30 31/18/31 32/26/32
f 33/20/33 32/26/32 31/18/31
f 32/26/32 33/20/33 34/27/34
f 35/21/35 34/27/34 33/20/33
f 34/27/34 35/21/35 36/28/36
f 35/21/35 37/29/5 36/28/36
f 38/30/37 27/7/27 26/23/25
f 38/30/37 39/9/38 27/7/27
f 38/30/37 40/31/39 39/9/38
f 40/31/39 41/11/40 39/9/38
f 40/31/39 42/32/41 41/11/40
f 43/33/42 44/34/43 45/35/44
f 44/34/43 46/36/45 45/35/44
f 44/34/43 43/33/42 47/37/46
f 46/36/45 44/34/43 48/38/47
f 49/39/48 47/37/46 43/33/42
f 48/38/47 50/40/49 46/36/45
f 47/37/46 49/39/48 51/41/50
f 52/42/51 51/41/50 49/39/48
f 51/41/50 52/42/51 53/43/52
f 54/44/53 50/40/49 48/38/47
f 50/40/49 54/44/53 55/45/54
f 55/45/54 54/44/53 56/46/55
f 57/47/56 55/45/54 56/46/55
f 55/45/54 57/47/56 58/48/57
f 58/48/57 57/47/56 59/49/58
f 59/49/58 57/47/56 60/50/59
f 60/50/59 61/51/60 59/49/58
f 62/52/61 63/53/43 64/54/62
f 64/54/62 63/53/43 65/55/63
f 63/53/43 62/52/61 66/56/64
f 65/55/63 63/53/43 67/57/65
f 68/58/66 66/56/64 62/52/61
f 65/55/63 67/57/65 69/59/67
f 66/56/64 68/58/66 70/60/68
f 69/59/67 67/57/65 71/61/69
f 69/59/67 71/61/69 72/62/70
f 72/62/70 71/61/69 73/63/71
f 74/64/72 70/60/68 68/58/66
f 70/60/68 74/64/72 75/65/55
f 74/64/72 76/66/56 75/65/55
f 76/66/56 74/64/72 77/67/73
f 77/67/73 78/68/59 76/66/56
f 78/68/59 77/67/73 79/69/74
f 79/69/74 80/70/60 78/68/59
f 81/71/75 82/72/76 83/73/77
f 82/72/76 81/71/75 84/74/78
f 85/75/79 84/74/78 81/71/75
f 84/74/78 85/75/79 86/76/80
f 87/77/81 86/76/80 85/75/79
f 87/77/81 85/75/79 88/78/82
f 89/79/83 87/77/81 88/78/82
f 87/77/81 89/79/83 90/80/84
f 91/81/85 90/80/84 89/79/83
f 91/81/85 89/79/83 92/82/86
f 91/81/85 92/82/86 93/83/87
f 93/83/87 92/82/86 94/84/88
f 95/85/89 93/83/87 94/84/88
f 93/83/87 95/85/89 96/86/90
f 96/86/90 95/85/89 97/87/91
f 95/85/89 98/88/92 97/87/91
f 98/88/92 99/89/5 97/87/91
f 100/90/93 101/76/94 87/77/95
f 102/80/96 100/90/93 87/77/95
f 103/91/97 101/76/94 100/90/93
f 103/91/97 104/74/98 101/76/94
f 103/91/97 105/92/99 104/74/98
f 105/92/99 106/72/100 104/74/98
f 105/92/99 107/93/101 106/72/100
f 100/90/93 102/80/96 108/94/102
f 109/81/103 108/94/102 102/80/96
f 108/94/102 109/81/103 110/95/104
f 111/83/105 110/95/104 109/81/103
f 110/95/104 111/83/105 112/96/106
f 113/86/107 112/96/106 111/83/105
f 112/96/106 113/86/107 114/1/1
f 115/87/91 114/1/1 113/86/107
f 114/1/1 115/87/91 116/4/108
f 115/87/91 117/97/109 116/4/108
f 26/23/25 118/98/110 119/30/111
f 120/99/112 119/30/111 118/98/110
f 119/30/111 120/99/112 121/31/39
f 122/100/113 121/31/39 120/99/112
f 121/31/39 122/100/113 123/32/114
f 118/98/110 26/23/25 124/101/115
f 124/101/115 26/23/25 125/102/116
f 125/102/116 26/23/25 126/24/117
f 125/102/116 126/24/117 127/103/118
f 127/103/118 126/24/117 128/25/119
f 127/103/118 128/25/119 129/104/120
f 129/104/120 128/25/119 130/26/121
f 129/104/120 130/26/121 131/105/122
f 130/26/121 132/27/123 131/105/122
f 133/28/124 131/105/122 132/27/123
f 131/105/122 133/28/124 134/106/125
f 133/28/124 135/107/126 134/106/125
f 124/101/127 64/54/128 136/98/129
f 137/102/130 64/54/128 124/101/127
f 136/98/129 64/54/128 138/55/131
f 136/98/129 138/55/131 139/99/132
f 139/99/132 138/55/131 140/59/133
f 141/100/113 139/99/132 140/59/133
f 142/62/134 141/100/113 140/59/133
f 64/54/128 137/102/130 143/52/135
f 144/103/136 143/52/135 137/102/130
f 143/52/135 144/103/136 145/58/137
f 146/104/120 145/58/137 144/103/136
f 145/58/137 146/104/120 147/64/72
f 146/104/120 148/67/73 147/64/72
f 148/67/73 146/104/120 149/105/138
f 150/106/139 148/67/73 149/105/138
f 148/67/73 150/106/139 151/69/140
f 150/106/139 152/108/141 151/69/140
f 153/82/142 154/109/143 155/84/88
f 155/84/88 154/109/143 156/110/144
f 153/82/142 157/111/145 154/109/143
f 156/110/144 158/85/146 155/84/88
f 159/79/147 157/111/145 153/82/142
f 158/85/146 156/110/144 160/112/148
f 161/113/149 158/85/146 160/112/148
f 158/85/146 161/113/149 162/88/150
f 161/113/149 163/114/151 162/88/150
f 159/79/147 164/115/152 157/111/145
f 88/78/153 164/115/152 159/79/147
f 165/75/154 164/115/152 88/78/153
f 164/115/152 165/75/154 166/116/155
f 167/71/156 166/116/155 165/75/154
f 166/116/155 167/71/156 168/117/157
f 169/73/158 168/117/157 167/71/156
f 168/117/157 169/73/158 170/118/159
f 171/116/160 172/119/161 164/115/162
f 171/116/160 173/120/163 172/119/161
f 171/116/160 174/117/164 173/120/163
f 174/117/164 175/121/165 173/120/163
f 174/117/164 176/118/166 175/121/165
f 164/115/162 172/119/161 177/122/167
f 178/123/168 164/115/162 177/122/167
f 164/115/162 178/123/168 179/111/169
f 180/124/170 179/111/169 178/123/168
f 179/111/169 180/124/170 181/109/171
f 182/125/172 181/109/171 180/124/170
f 181/109/171 182/125/172 183/110/144
f 184/126/173 183/110/144 182/125/172
f 183/110/144 184/126/173 185/112/148
f 184/126/173 186/113/174 185/112/148
f 186/113/174 184/126/173 187/127/175
f 187/127/175 188/128/60 186/113/174
f 45/35/176 189/123/177 177/122/178
f 190/119/179 45/35/176 177/122/178
f 191/36/180 189/123/177 45/35/176
f 191/36/180 192/124/181 189/123/177
f 193/40/182 192/124/181 191/36/180
f 192/124/181 193/40/182 194/125/183
f 193/40/182 195/45/184 194/125/183
f 196/48/185 194/125/183 195/45/184
f 194/125/183 196/48/185 197/126/186
f 198/127/187 197/126/186 196/48/185
f 196/48/185 199/49/58 198/127/187
f 199/49/58 200/129/60 198/127/187
f 45/35/176 190/119/179 201/33/188
f 202/120/189 201/33/188 190/119/179
f 201/33/188 202/120/189 203/39/190
f 204/121/191 203/39/190 202/120/189
f 203/39/190 204/121/191 205/42/192
f 100/90/93 206/8/193 207/91/194
f 208/10/195 207/91/194 206/8/193
f 207/91/194 208/10/195 209/92/196
f 210/12/197 209/92/196 208/10/195
f 209/92/196 210/12/197 211/93/198
f 206/8/193 100/90/93 6/6/199
f 6/6/199 100/90/93 212/15/200
f 212/15/200 100/90/93 213/94/201
f 212/15/200 213/94/201 214/17/202
f 214/17/202 213/94/201 215/95/203
f 214/17/202 215/95/203 216/19/19
f 216/19/19 215/95/203 217/96/106
f 1/1/1 216/19/19 217/96/106
f 216/19/19 1/1/1 3/3/3
f 218/32/204 219/11/205 220/11/206
f 219/11/205 218/32/204 221/32/207
f 222/12/208 220/11/206 219/11/205
f 221/32/207 222/12/208 219/11/205
f 223/12/209 224/11/210 220/11/206
f 220/11/206 222/12/208 223/12/209
f 224/11/210 223/12/209 225/12/211
f 225/12/211 226/11/212 224/11/210
f 227/43/213 228/118/214 221/32/207
f 226/11/212 225/12/211 229/12/215
f 229/12/215 230/11/216 226/11/212
f 221/32/207 231/72/217 222/12/208
f 231/72/217 221/32/207 228/118/214
f 230/11/216 229/12/215 232/12/218
f 232/12/218 233/12/219 230/11/216
f 232/12/218 234/93/220 233/12/219
f 229/12/215 235/93/221 232/12/218
f 234/93/220 232/12/218 235/93/221
f 235/93/221 229/12/215 236/93/222
f 225/12/211 236/93/222 229/12/215
f 237/72/223 234/93/220 235/93/221
f 234/93/220 237/72/223 238/72/224
f 239/72/225 235/93/221 236/93/222
f 235/93/221 239/72/225 237/72/223
f 236/93/222 225/12/211 240/93/226
f 223/12/209 240/93/226 225/12/211
f 236/93/222 241/72/227 239/72/225
f 241/72/227 236/93/222 240/93/226
f 242/73/228 237/72/223 239/72/225
f 241/72/227 242/73/228 239/72/225
f 243/73/229 238/72/224 237/72/223
f 237/72/223 242/73/228 243/73/229
f 238/72/224 243/73/229 244/73/230
f 240/93/226 223/12/209 245/93/231
f 222/12/208 245/93/231 223/12/209
f 245/93/231 222/12/208 246/93/232
f 222/12/208 231/72/217 246/93/232
f 231/72/217 245/93/231 246/93/232
f 247/72/233 240/93/226 245/93/231
f 245/93/231 231/72/217 247/72/233
f 240/93/226 247/72/233 241/72/227
f 248/73/234 247/72/233 231/72/217
f 231/72/217 228/118/214 248/73/234
f 249/73/235 241/72/227 247/72/233
f 247/72/233 248/73/234 249/73/235
f 241/72/227 249/73/235 250/73/236
f 250/73/236 242/73/228 241/72/227
f 248/73/234 251/118/237 249/73/235
f 251/118/237 248/73/234 228/118/214
f 249/73/235 252/118/238 250/73/236
f 252/118/238 249/73/235 251/118/237
f 250/73/236 253/118/239 242/73/228
f 253/118/239 250/73/236 252/118/238
f 254/118/240 242/73/228 253/118/239
f 242/73/228 254/118/240 243/73/229
f 255/121/241 254/118/240 253/118/239
f 256/121/242 253/118/239 252/118/238
f 253/118/239 256/121/242 255/121/241
f 257/121/243 252/118/238 251/118/237
f 252/118/238 257/121/243 256/121/242
f 251/118/237 258/121/244 257/121/243
f 258/121/244 251/118/237 228/118/214
f 259/42/245 256/121/242 257/121/243
f 257/121/243 258/121/244 259/42/245
f 228/118/214 260/42/246 258/121/244
f 260/42/246 259/42/245 258/121/244
f 228/118/214 227/43/213 260/42/246
f 227/43/213 261/43/247 260/42/246
f 259/42/245 260/42/246 261/43/247
f 261/43/247 262/43/248 259/42/245
f 256/121/242 259/42/245 263/42/249
f 263/42/249 259/42/245 262/43/248
f 263/42/249 255/121/241 256/121/242
f 262/43/248 264/43/250 263/42/249
f 265/42/251 263/42/249 264/43/250
f 255/121/241 263/42/249 265/42/251
f 264/43/250 266/43/252 265/42/251
f 267/42/253 265/42/251 266/43/252
f 265/42/251 267/42/253 255/121/241
f 266/43/252 268/43/254 267/42/253
f 269/121/255 255/121/241 267/42/253
f 254/118/240 255/121/241 269/121/255
f 270/42/256 267/42/253 268/43/254
f 268/43/254 271/43/257 270/42/256
f 267/42/253 272/121/258 269/121/255
f 272/121/258 267/42/253 270/42/256
f 269/121/255 273/118/259 254/118/240
f 273/118/259 269/121/255 272/121/258
f 273/118/259 243/73/229 254/118/240
f 243/73/229 273/118/259 244/73/230
f 274/118/260 244/73/230 273/118/259
f 272/121/258 274/118/260 273/118/259
f 274/118/260 272/121/258 275/121/261
f 270/42/256 275/121/261 272/121/258
f 275/121/261 276/118/262 274/118/260
f 276/118/262 275/121/261 277/121/263
f 275/121/261 270/42/256 278/42/264
f 278/42/264 277/121/263 275/121/261
f 278/42/264 270/42/256 271/43/257
f 277/121/263 278/42/264 279/42/265
f 280/43/266 278/42/264 271/43/257
f 279/42/265 278/42/264 280/43/266
f 274/118/260 281/73/267 282/73/268
f 283/72/269 282/73/268 281/73/267
f 281/73/267 274/118/260 276/118/262
f 282/73/268 283/72/269 284/72/270
f 285/93/271 284/72/270 283/72/269
f 284/72/270 285/93/271 286/93/272
f 238/72/224 282/73/268 284/72/270
f 286/93/272 238/72/224 284/72/270
f 287/12/12 286/93/272 285/93/271
f 244/73/230 282/73/268 238/72/224
f 244/73/230 274/118/260 282/73/268
f 286/93/272 287/12/12 288/12/273
f 289/11/274 288/12/273 287/12/12
f 288/12/273 289/11/274 290/11/275
f 289/11/274 291/32/276 290/11/275
f 289/11/274 292/32/41 291/32/276
f 293/11/277 288/12/273 290/11/275
f 291/32/276 293/11/277 290/11/275
f 233/12/219 286/93/272 288/12/273
f 233/12/219 288/12/273 293/11/277
f 286/93/272 233/12/219 234/93/220
f 238/72/224 286/93/272 234/93/220
f 230/11/216 233/12/219 293/11/277
f 292/32/41 294/100/278 291/32/276
f 294/100/278 292/32/41 295/100/279
f 293/11/277 291/32/276 296/32/280
f 296/32/280 230/11/216 293/11/277
f 297/100/281 291/32/276 294/100/278
f 291/32/276 297/100/281 296/32/280
f 295/100/279 298/62/282 294/100/278
f 298/62/282 295/100/279 299/62/283
f 300/63/284 298/62/282 299/62/283
f 298/62/282 300/63/284 301/63/257
f 302/62/285 294/100/278 298/62/282
f 301/63/257 302/62/285 298/62/282
f 297/100/281 294/100/278 302/62/285
f 302/62/285 301/63/257 303/63/286
f 303/63/286 304/62/287 302/62/285
f 304/62/287 297/100/281 302/62/285
f 304/62/287 303/63/286 305/63/288
f 306/100/289 297/100/281 304/62/287
f 306/100/289 296/32/280 297/100/281
f 305/63/288 307/62/290 304/62/287
f 307/62/290 306/100/289 304/62/287
f 307/62/290 305/63/288 308/63/291
f 296/32/280 306/100/289 309/32/292
f 310/100/293 306/100/289 307/62/290
f 310/100/293 309/32/292 306/100/289
f 308/63/291 311/62/294 307/62/290
f 311/62/294 310/100/293 307/62/290
f 311/62/294 308/63/291 312/63/295
f 230/11/216 296/32/280 309/32/292
f 312/63/295 313/62/296 311/62/294
f 313/62/296 312/63/295 314/63/297
f 315/100/298 310/100/293 311/62/294
f 313/62/296 315/100/298 311/62/294
f 309/32/292 310/100/293 316/32/299
f 315/100/298 316/32/299 310/100/293
f 309/32/292 226/11/212 230/11/216
f 226/11/212 309/32/292 316/32/299
f 314/63/297 317/62/300 313/62/296
f 317/62/300 314/63/297 318/63/301
f 319/100/302 315/100/298 313/62/296
f 317/62/300 319/100/302 313/62/296
f 316/32/299 315/100/298 320/32/303
f 319/100/302 320/32/303 315/100/298
f 319/100/302 317/62/300 321/100/304
f 224/11/210 316/32/299 320/32/303
f 316/32/299 224/11/210 226/11/212
f 320/32/303 319/100/302 218/32/204
f 321/100/304 218/32/204 319/100/302
f 227/43/213 321/100/304 317/62/300
f 220/11/206 320/32/303 218/32/204
f 320/32/303 220/11/206 224/11/210
f 218/32/204 321/100/304 221/32/207
f 321/100/304 227/43/213 221/32/207
